<svg width="1440" height="583" viewBox="0 0 1440 583" fill="none" xmlns="http://www.w3.org/2000/svg">
<rect width="1440" height="583" fill="#213555"/>
<rect x="1000.42" y="120.104" width="232.003" height="323.091" rx="14.9388" fill="white"/>
<rect x="1000.42" y="120.104" width="232.003" height="323.091" rx="14.9388" fill="#3E5879"/>
<rect x="1019.42" y="136.332" width="193.995" height="290.634" rx="2.72222" fill="white"/>
<rect x="1039.99" y="184.108" width="25.7781" height="25.8614" rx="11.0324" fill="#554E4E"/>
<rect x="1074.85" y="187.536" width="127.926" height="19.0086" rx="8.109" fill="#554E4E"/>
<rect x="1039.99" y="342.466" width="25.7781" height="25.8614" rx="11.0324" fill="#554E4E"/>
<rect x="1074.85" y="345.892" width="127.926" height="19.0086" rx="8.109" fill="#554E4E"/>
<rect x="1039.99" y="236.895" width="25.7781" height="25.8614" rx="11.0324" fill="#554E4E"/>
<rect x="1074.85" y="240.322" width="127.926" height="19.0086" rx="8.109" fill="#554E4E"/>
<rect x="1039.99" y="289.68" width="25.7781" height="25.8614" rx="11.0324" fill="#554E4E"/>
<rect x="1074.85" y="293.107" width="127.926" height="19.0086" rx="8.109" fill="#554E4E"/>
<path fill-rule="evenodd" clip-rule="evenodd" d="M1135.77 109.417H1146.39C1160.07 109.417 1171.15 120.541 1171.15 134.264V137.067C1171.16 138.188 1170.71 139.264 1169.92 140.058C1169.13 140.852 1168.06 141.299 1166.93 141.301H1065.91C1064.78 141.299 1063.71 140.852 1062.92 140.058C1062.13 139.264 1061.68 138.188 1061.69 137.067V134.264C1061.69 120.541 1072.77 109.417 1086.45 109.417H1097.07C1097.07 98.6932 1105.73 90 1116.42 90C1127.11 90 1135.77 98.6932 1135.77 109.417ZM1109.04 112.485C1110.28 115.463 1113.19 117.398 1116.42 117.388H1116.42C1118.53 117.385 1120.55 116.543 1122.04 115.048C1123.53 113.553 1124.37 111.528 1124.37 109.417C1124.37 106.191 1122.42 103.283 1119.44 102.05C1116.46 100.818 1113.03 101.505 1110.75 103.79C1108.47 106.075 1107.8 109.508 1109.04 112.485Z" fill="#CECECE"/>
<mask id="mask0_61_635" style="mask-type:luminance" maskUnits="userSpaceOnUse" x="1061" y="90" width="111" height="52">
<path fill-rule="evenodd" clip-rule="evenodd" d="M1146.39 109.417H1135.77C1135.77 98.6932 1127.11 90 1116.42 90C1105.73 90 1097.07 98.6932 1097.07 109.417H1086.45C1072.77 109.417 1061.69 120.541 1061.69 134.264V137.067C1061.68 138.188 1062.13 139.264 1062.92 140.058C1063.71 140.852 1064.78 141.299 1065.91 141.301H1166.93C1168.06 141.299 1169.13 140.852 1169.92 140.058C1170.71 139.264 1171.16 138.188 1171.15 137.067V134.264C1171.15 120.541 1160.07 109.417 1146.39 109.417ZM1116.42 117.388C1113.19 117.398 1110.28 115.463 1109.04 112.485C1107.8 109.508 1108.47 106.075 1110.75 103.79C1113.03 101.505 1116.46 100.818 1119.44 102.05C1122.42 103.283 1124.37 106.191 1124.37 109.417C1124.37 111.528 1123.53 113.553 1122.04 115.048C1120.55 116.543 1118.53 117.385 1116.42 117.388H1116.42Z" fill="white"/>
</mask>
<g mask="url(#mask0_61_635)">
<path d="M1158.49 99.9466C1181.68 135.233 1132.28 143.202 1068.49 132.461C1004.7 121.719 1075.04 149.497 1075.04 149.497L1200.39 153.627L1189.17 99.5712L1154.37 96.8389" fill="#999999"/>
</g>
<path d="M1207.62 396.147C1204.94 399.982 1201.35 403.09 1197.17 405.194" stroke="#1B1B1B" stroke-width="1.01477" stroke-linecap="round" stroke-linejoin="round"/>
<path d="M1258.52 339.895L1219.65 337.503C1213.7 337.137 1209.84 331.058 1212.01 325.487L1216.81 313.17C1217.74 310.763 1219.69 308.889 1222.13 308.047C1224.57 307.204 1227.26 307.479 1229.48 308.798L1260.68 327.364L1258.52 339.895Z" fill="white"/>
<mask id="mask1_61_635" style="mask-type:luminance" maskUnits="userSpaceOnUse" x="1211" y="307" width="50" height="33">
<path fill-rule="evenodd" clip-rule="evenodd" d="M1258.52 339.894L1219.65 337.502C1213.7 337.136 1209.84 331.057 1212.01 325.486L1216.81 313.169C1217.74 310.762 1219.69 308.888 1222.13 308.046C1224.57 307.203 1227.26 307.478 1229.48 308.797L1260.68 327.363L1258.52 339.894Z" fill="white"/>
</mask>
<g mask="url(#mask1_61_635)">
<path d="M1253.27 317.334C1252.31 327.215 1248.23 331.874 1241.59 327.616C1234.94 323.359 1242.71 331.874 1249.11 334.685C1255.52 337.497 1217.49 339.893 1216.81 313.168C1216.36 295.443 1210.45 330.865 1210.45 330.865L1211.4 345.209L1218.13 349.225L1246.79 354.045L1259.76 341.353V324.483L1253.27 317.334Z" fill="white"/>
</g>
<path d="M1261.68 445.22H1200.57C1195.2 445.21 1190.86 440.851 1190.87 435.482V352.357H1261.68L1261.68 445.22Z" fill="white"/>
<path fill-rule="evenodd" clip-rule="evenodd" d="M1261.68 445.22H1200.57C1195.2 445.21 1190.86 440.851 1190.87 435.482V352.357H1261.68L1261.68 445.22Z" fill="#ECE5DC"/>
<path d="M1258.43 445.22H1319.54C1324.91 445.21 1329.25 440.851 1329.24 435.482V352.357H1258.43L1258.43 445.22Z" fill="#F5EFE7"/>
<rect opacity="0.06" x="1190.87" y="348.188" width="67.5599" height="20.6391" fill="black"/>
<rect opacity="0.06" x="1258.43" y="348.188" width="70.8166" height="20.6391" fill="black"/>
<path d="M1263.26 336.612H1189.62C1186.94 336.617 1184.78 338.788 1184.78 341.462V356.342C1184.78 358.042 1186.16 359.423 1187.86 359.426H1258.43V341.462C1258.42 338.788 1260.59 336.617 1263.26 336.612Z" fill="#ECE5DC"/>
<path d="M1331.72 336.612H1263.26C1260.59 336.617 1258.42 338.788 1258.43 341.462V359.426H1333.48C1335.18 359.423 1336.56 358.042 1336.55 356.342V341.462C1336.56 338.788 1334.39 336.617 1331.72 336.612Z" fill="#F5EFE7"/>
<path d="M1208.1 342.61L1203.44 347.483" stroke="#1B1B1B" stroke-width="1.01477" stroke-linecap="round" stroke-linejoin="round"/>
<path d="M1238.95 221.497L1239.23 221.671L1238.82 220.828L1235.95 205.345C1234.78 199.08 1227.69 195.957 1222.31 199.336L1209.6 207.31C1208.11 208.219 1206.94 209.571 1206.26 211.175C1204.63 215.169 1203.62 222.721 1215.95 227.561C1233.35 234.395 1239.78 225.992 1239.78 225.992L1238.95 221.497Z" fill="#1B1B1B"/>
<path d="M1248.67 276.68L1210.98 274.579C1210.98 274.579 1204.2 269.016 1201.55 270.378C1197.57 272.429 1191.09 276.359 1188.08 277.438C1188.08 277.438 1187.96 281.115 1196.69 277.147C1196.69 277.147 1199.14 282.486 1208.65 281.26L1258.21 290.101L1248.67 276.68Z" fill="#FFE6C0"/>
<path d="M1218.63 275.006C1218.63 275.006 1217.96 282.921 1224.16 287.566L1257.91 290.406C1265.33 291.506 1271.34 284.433 1269.09 277.252L1257.15 239.214C1256.06 233.421 1250.41 229.505 1244.38 230.355C1237.75 231.289 1233.41 237.55 1235.03 243.83L1242.63 273.179L1218.63 275.006Z" fill="white"/>
<path fill-rule="evenodd" clip-rule="evenodd" d="M1218.63 275.006C1218.63 275.006 1217.96 282.921 1224.16 287.566L1257.91 290.406C1265.33 291.506 1271.34 284.433 1269.09 277.252L1257.15 239.214C1256.06 233.421 1250.41 229.505 1244.38 230.355C1237.75 231.289 1233.41 237.55 1235.03 243.83L1242.63 273.179L1218.63 275.006Z" fill="#FB9349"/>
<path d="M1205.55 339.898L1225.9 365.329L1237.18 360.595L1219.12 333.846L1213.67 342.621" fill="white"/>
<mask id="mask2_61_635" style="mask-type:luminance" maskUnits="userSpaceOnUse" x="1205" y="333" width="33" height="33">
<path fill-rule="evenodd" clip-rule="evenodd" d="M1205.55 339.898L1225.9 365.329L1237.18 360.595L1219.12 333.846L1213.67 342.621" fill="white"/>
</mask>
<g mask="url(#mask2_61_635)">
<path d="M1228.99 344.972C1225.35 355.124 1219.13 349.812 1219.59 357.603C1220.05 365.394 1209.65 351.465 1209.65 351.465L1212.99 349.458L1227.17 344.116" fill="white"/>
</g>
<path fill-rule="evenodd" clip-rule="evenodd" d="M1205.55 339.898L1225.9 365.329L1237.18 360.595L1219.12 333.846L1213.67 342.621" fill="#FFE6C0"/>
<path d="M1211.6 386.547C1211.6 386.547 1204.78 378.722 1216.67 373.854C1228.16 369.153 1221.22 362.108 1221.22 362.108L1235.31 357.527L1241.19 364.226C1242 365.152 1241.71 366.364 1240.48 367.19L1211.6 386.547Z" fill="#1B1B1B"/>
<path d="M1208.34 351.925C1208.34 351.925 1222.76 351.091 1227.64 345.057L1209.86 317.337L1250.73 332.913C1253.82 325.69 1232.83 313.314 1255.96 334.9L1259.45 324.552C1259.91 324.727 1261.34 328.095 1261.8 327.921C1266.43 326.171 1261.65 327.004 1263.2 321.796L1270.89 309.727L1265.5 308.026L1202.64 293.773C1194.6 291.073 1185.6 292.753 1180.64 297.88C1176.22 302.442 1175.92 308.805 1179.87 314.059L1208.34 351.925Z" fill="#112951"/>
<path d="M1203.53 345.65C1203.53 345.65 1206.93 352.658 1208.6 354.225C1208.6 354.225 1224.08 355.672 1228.75 344.676L1224.02 337.56C1224.02 337.56 1218.25 348.913 1203.53 345.65Z" fill="#0F6CBA"/>
<path d="M1193.49 346.129L1216.99 377.056L1227.56 368.57L1206.15 335.437L1201.9 348.365" fill="white"/>
<mask id="mask3_61_635" style="mask-type:luminance" maskUnits="userSpaceOnUse" x="1193" y="335" width="35" height="43">
<path fill-rule="evenodd" clip-rule="evenodd" d="M1193.49 346.13L1216.99 377.057L1227.56 368.571L1206.15 335.438L1201.9 348.366" fill="white"/>
</mask>
<g mask="url(#mask3_61_635)">
<path d="M1217.06 350.308C1213.58 359.238 1204.98 359.473 1208.46 367.166C1211.93 374.858 1199.34 367.501 1199.34 367.501L1199.79 355.751L1211.11 353.263" fill="white"/>
</g>
<path fill-rule="evenodd" clip-rule="evenodd" d="M1193.49 346.129L1216.99 377.056L1227.56 368.57L1206.15 335.437L1201.9 348.365" fill="#FFE6C0"/>
<path d="M1205.6 408.521C1205.6 408.521 1197.81 399.107 1208.96 390.328C1219.74 381.85 1211.93 373.52 1211.93 373.52L1225.3 364.733L1232.01 372.786C1232.93 373.899 1232.81 375.6 1231.69 376.948L1205.6 408.521Z" fill="#1B1B1B"/>
<path d="M1198.82 361.811C1198.82 361.811 1213.01 358.065 1217.06 348.969L1195.79 314.464L1253.79 336.545C1257.59 337.992 1261.76 338.183 1265.68 337.088C1273.16 334.99 1278.63 328.573 1279.51 320.854L1281.64 302.419L1255.3 293.055L1249.73 291.717L1185.55 283.702C1177.23 281.482 1168.53 285.398 1164.28 293.275C1160.5 300.284 1161.03 308.998 1165.64 315.433L1198.82 361.811Z" fill="white"/>
<mask id="mask4_61_635" style="mask-type:luminance" maskUnits="userSpaceOnUse" x="1161" y="283" width="121" height="79">
<path fill-rule="evenodd" clip-rule="evenodd" d="M1198.82 361.811C1198.82 361.811 1213.01 358.065 1217.06 348.969L1195.79 314.464L1253.79 336.545C1257.59 337.992 1261.76 338.183 1265.68 337.088C1273.16 334.99 1278.63 328.573 1279.51 320.854L1281.64 302.419L1255.3 293.055L1249.73 291.717L1185.55 283.702C1177.23 281.482 1168.53 285.398 1164.28 293.275C1160.5 300.284 1161.03 308.998 1165.64 315.433L1198.82 361.811Z" fill="white"/>
</mask>
<g mask="url(#mask4_61_635)">
<path d="M1214.77 273.086C1255.23 291.397 1274.87 289.9 1275.69 303.001C1276.5 316.103 1260.53 331.55 1236.04 319.368C1211.56 307.185 1274.26 339.436 1274.26 339.436C1274.26 339.436 1300.76 318.349 1301.88 317.226C1302.99 316.103 1303.74 295.728 1302.62 293.562C1301.5 291.397 1288.07 281.926 1288.07 281.926L1285.04 277.172" fill="#47B6D2"/>
</g>
<path fill-rule="evenodd" clip-rule="evenodd" d="M1198.82 361.811C1198.82 361.811 1213.01 358.065 1217.06 348.969L1195.79 314.464L1253.79 336.545C1257.59 337.992 1261.76 338.183 1265.68 337.088C1273.16 334.99 1278.63 328.573 1279.51 320.854L1281.64 302.419L1255.3 293.055L1249.73 291.717L1185.55 283.702C1177.23 281.482 1168.53 285.398 1164.28 293.275C1160.5 300.284 1161.03 308.998 1165.64 315.433L1198.82 361.811Z" fill="#112951"/>
<path d="M1233.03 217.927L1249.5 228.708L1242.4 245.157L1221.18 227.644L1233.03 217.927Z" fill="white"/>
<mask id="mask5_61_635" style="mask-type:luminance" maskUnits="userSpaceOnUse" x="1221" y="217" width="29" height="29">
<path fill-rule="evenodd" clip-rule="evenodd" d="M1233.03 217.927L1249.5 228.708L1242.4 245.157L1221.18 227.644L1233.03 217.927Z" fill="white"/>
</mask>
<g mask="url(#mask5_61_635)">
<path d="M1231.27 225.078C1231.75 233.022 1230.5 234.639 1232.73 237.928C1234.97 241.217 1225.98 237.784 1225.98 237.784L1221.78 231.386L1230.05 222.86" fill="white"/>
</g>
<path fill-rule="evenodd" clip-rule="evenodd" d="M1233.03 217.927L1249.5 228.708L1242.4 245.157L1221.18 227.644L1233.03 217.927Z" fill="#FFE6C0"/>
<path d="M1231.75 222.267L1230.07 218.767C1225.1 220.112 1215.03 221.424 1211.19 211.624C1208.3 216.928 1213.38 232.048 1219.31 235.151C1221.87 236.489 1228.34 232.074 1231.52 229.016" fill="#FFE6C0"/>
<path d="M1226.37 220.137C1228.77 209.651 1238.31 216.594 1231.07 222.861L1226.37 220.137Z" fill="#FFE6C0"/>
<path d="M1246.18 291.833C1246.18 291.833 1270.7 303.659 1287.13 303.192C1287.13 303.192 1297.44 238.285 1245.34 225.079L1233.38 236.283C1233.38 236.283 1227.82 254.255 1246.18 291.833Z" fill="white"/>
<path fill-rule="evenodd" clip-rule="evenodd" d="M1246.18 291.833C1246.18 291.833 1270.7 303.659 1287.13 303.192C1287.13 303.192 1297.44 238.285 1245.34 225.079L1233.38 236.283C1233.38 236.283 1227.82 254.255 1246.18 291.833Z" fill="#FFA260"/>
<path d="M1228.29 289.541L1183.49 284.261L1164.11 238.195L1169.38 238.758L1186.71 279.955L1228.83 284.92L1228.29 289.541Z" fill="white"/>
<path fill-rule="evenodd" clip-rule="evenodd" d="M1228.29 289.541L1183.49 284.261L1164.11 238.195L1169.38 238.758L1186.71 279.955L1228.83 284.92L1228.29 289.541Z" fill="#D9D9D9"/>
<path d="M1254.08 278.656L1216.39 276.556C1216.39 276.556 1209.61 270.992 1206.96 272.354C1202.98 274.406 1196.5 278.336 1193.49 279.415C1193.49 279.415 1193.37 283.091 1202.1 279.123C1202.1 279.123 1204.55 284.462 1214.06 283.237L1263.62 292.077L1254.08 278.656Z" fill="white"/>
<mask id="mask6_61_635" style="mask-type:luminance" maskUnits="userSpaceOnUse" x="1193" y="272" width="71" height="21">
<path fill-rule="evenodd" clip-rule="evenodd" d="M1254.08 278.656L1216.39 276.556C1216.39 276.556 1209.61 270.992 1206.96 272.354C1202.98 274.406 1196.5 278.336 1193.49 279.415C1193.49 279.415 1193.37 283.091 1202.1 279.123C1202.1 279.123 1204.55 284.462 1214.06 283.237L1263.62 292.077L1254.08 278.656Z" fill="white"/>
</mask>
<g mask="url(#mask6_61_635)">
<path d="M1226.17 275.072C1222.37 274.561 1225.01 282.656 1223.3 284.884C1221.58 287.112 1227.7 286.483 1227.7 286.483L1226.56 278.771" fill="#FFE6C0"/>
<path d="M1221.71 276.852C1227.83 277.166 1217.97 284.572 1220.86 287.798C1223.74 291.024 1228.83 284.92 1228.83 284.92L1226.26 276.812" fill="#FFE6C0"/>
</g>
<path fill-rule="evenodd" clip-rule="evenodd" d="M1254.08 278.656L1216.39 276.556C1216.39 276.556 1209.61 270.992 1206.96 272.354C1202.98 274.406 1196.5 278.336 1193.49 279.415C1193.49 279.415 1193.37 283.091 1202.1 279.123C1202.1 279.123 1204.55 284.462 1214.06 283.237L1263.62 292.077L1254.08 278.656Z" fill="#FFE6C0"/>
<path d="M1241.84 251.224L1248.04 275.155L1224.04 276.982C1224.04 276.982 1222.62 286.302 1228.83 290.946L1263.32 292.381C1270.74 293.482 1276.75 286.409 1274.5 279.228L1262.56 241.189" fill="white"/>
<mask id="mask7_61_635" style="mask-type:luminance" maskUnits="userSpaceOnUse" x="1223" y="241" width="52" height="52">
<path fill-rule="evenodd" clip-rule="evenodd" d="M1241.84 251.224L1248.04 275.155L1224.04 276.982C1224.04 276.982 1222.62 286.302 1228.83 290.946L1263.32 292.381C1270.74 293.482 1276.75 286.409 1274.5 279.228L1262.56 241.189" fill="white"/>
</mask>
<g mask="url(#mask7_61_635)">
<path d="M1280.77 255.061L1283.74 261.091L1290.37 262.058L1285.57 266.753L1286.7 273.381L1280.77 270.252L1274.84 273.381L1275.97 266.753L1271.17 262.058L1277.8 261.091L1280.77 255.061Z" fill="white" stroke="#1B1B1B" stroke-width="1.01477" stroke-linecap="round" stroke-linejoin="round"/>
</g>
<path fill-rule="evenodd" clip-rule="evenodd" d="M1241.84 251.224L1248.04 275.155L1224.04 276.982C1224.04 276.982 1222.62 286.302 1228.83 290.946L1263.32 292.381C1270.74 293.482 1276.75 286.409 1274.5 279.228L1262.56 241.189" fill="#FB9349"/>
<path d="M1241.73 220.616C1241.73 220.616 1234.04 231.945 1233.38 236.282L1232.59 239.778L1245.34 225.078C1245.34 225.078 1244.94 221.616 1241.73 220.616Z" fill="#AF3A3A"/>
<path d="M1192.37 354.224C1192.37 354.224 1196.91 360.55 1198.82 361.811C1198.82 361.811 1214.32 360.6 1217.06 348.969L1212.68 341.86C1212.68 341.86 1207.43 354.933 1192.37 354.224Z" fill="#0F6CBA"/>
<ellipse cx="1234.76" cy="242.274" rx="0.58161" ry="0.583495" stroke="#1B1B1B" stroke-width="1.01477" stroke-linecap="round" stroke-linejoin="round"/>
<ellipse cx="1236.23" cy="255.646" rx="0.58161" ry="0.583495" stroke="#1B1B1B" stroke-width="1.01477" stroke-linecap="round" stroke-linejoin="round"/>
<ellipse cx="1238.96" cy="267.427" rx="0.58161" ry="0.583495" stroke="#1B1B1B" stroke-width="1.01477" stroke-linecap="round" stroke-linejoin="round"/>
<path d="M1217.04 224.915C1217.62 224.77 1217.98 224.182 1217.83 223.601L1217.39 221.821C1217.33 221.542 1217.15 221.302 1216.9 221.153C1216.66 221.004 1216.36 220.959 1216.09 221.027C1215.5 221.172 1215.15 221.76 1215.29 222.341L1215.73 224.121C1215.8 224.4 1215.98 224.641 1216.22 224.789C1216.47 224.938 1216.76 224.983 1217.04 224.915Z" fill="#1B1B1B"/>
<path d="M1214.28 217.735C1217.42 216.808 1218.45 217.953 1216.53 218.66C1214.6 219.368 1212.23 218.34 1214.28 217.735Z" fill="#1B1B1B"/>
<path d="M1213.76 223.773C1210.5 227.216 1212.93 230.946 1215.38 229.312L1213.76 223.773Z" fill="#FFE6C0"/>
<path d="M1213.76 223.773C1210.5 227.216 1212.93 230.946 1215.38 229.312" stroke="#1B1B1B" stroke-width="1.01477" stroke-linecap="round" stroke-linejoin="round"/>
<ellipse opacity="0.27" cx="1221" cy="224.563" rx="2.46484" ry="1.82159" transform="rotate(-23.7824 1221 224.563)" fill="#FE8888"/>
<path d="M1220.61 227.368C1220.19 228.749 1219.05 229.79 1217.64 230.085L1220.61 227.368Z" fill="white"/>
<path d="M1220.61 227.368C1220.19 228.749 1219.05 229.79 1217.64 230.085" stroke="#1B1B1B" stroke-width="1.01477" stroke-linecap="round" stroke-linejoin="round"/>
<path d="M1229.02 219.035C1229.07 218.615 1229.37 218.266 1229.78 218.153C1230.18 218.04 1230.62 218.185 1230.88 218.519C1231.14 218.854 1231.17 219.311 1230.96 219.678" stroke="#1B1B1B" stroke-width="1.01477" stroke-linecap="round" stroke-linejoin="round"/>
<path d="M1220.98 207.962C1221.14 209.145 1221.77 210.215 1222.73 210.924" stroke="#1B1B1B" stroke-width="1.01477" stroke-linecap="round" stroke-linejoin="round"/>
<path d="M1196.55 315.108L1193.75 312.72" stroke="#1B1B1B" stroke-width="1.01477" stroke-linecap="round" stroke-linejoin="round"/>
<path d="M1230.08 300.871C1229.65 303.387 1229.78 305.969 1230.47 308.426" stroke="#1B1B1B" stroke-width="1.01477" stroke-linecap="round" stroke-linejoin="round"/>
<path d="M1209.12 377.553C1210.51 378.878 1212.41 379.528 1214.32 379.331L1205.47 384.77" stroke="#1B1B1B" stroke-width="1.01477" stroke-linecap="round" stroke-linejoin="round"/>
<rect opacity="0.44" x="941.658" y="304.467" width="20.9733" height="21.0951" rx="2.02236" fill="white"/>
<rect opacity="0.44" x="941.658" y="341.674" width="20.9733" height="21.0951" rx="2.02236" fill="white"/>
<path d="M928.489 436.084L931.935 433.996" stroke="#1B1B1B" stroke-width="1.01477" stroke-linecap="round" stroke-linejoin="round"/>
<rect x="872.806" y="244.605" width="0.77362" height="17.2311" fill="white"/>
<mask id="mask8_61_635" style="mask-type:luminance" maskUnits="userSpaceOnUse" x="872" y="244" width="2" height="18">
<rect x="872.806" y="244.605" width="0.77362" height="17.2311" fill="white"/>
</mask>
<g mask="url(#mask8_61_635)">
<path d="M870.692 248.525C869.525 250.852 874.527 249.343 876.215 252.739C877.903 256.135 875.694 246.765 875.694 246.765L869.963 247.708" fill="white"/>
<path d="M870.692 248.525C869.525 250.852 874.527 249.343 876.215 252.739C877.903 256.135 875.694 246.765 875.694 246.765L869.963 247.708" stroke="#1B1B1B" stroke-width="1.01477" stroke-linecap="round" stroke-linejoin="round"/>
</g>
<rect x="872.806" y="244.605" width="0.77362" height="17.2311" stroke="#757575" stroke-width="1.01477" stroke-linecap="round" stroke-linejoin="round"/>
<ellipse cx="873.193" cy="263.304" rx="2.50097" ry="2.51549" fill="white" stroke="#757575" stroke-width="1.01477" stroke-linecap="round" stroke-linejoin="round"/>
<ellipse cx="873.193" cy="263.304" rx="1.38943" ry="1.3975" fill="white" stroke="#757575" stroke-width="1.01477" stroke-linecap="round" stroke-linejoin="round"/>
<path d="M814.17 166.374H932.216V244.48C932.216 247.467 929.794 249.888 926.808 249.888H819.578C816.591 249.888 814.17 247.467 814.17 244.48V166.374H814.17Z" fill="white"/>
<mask id="mask9_61_635" style="mask-type:luminance" maskUnits="userSpaceOnUse" x="814" y="166" width="119" height="84">
<path fill-rule="evenodd" clip-rule="evenodd" d="M814.17 166.374H932.216V244.48C932.216 247.467 929.794 249.888 926.808 249.888H819.578C816.591 249.888 814.17 247.467 814.17 244.48V166.374H814.17Z" fill="white"/>
</mask>
<g mask="url(#mask9_61_635)">
<path d="M807.564 195.898C798.076 158.788 940.656 177.655 932.216 170.734C923.775 163.813 793.058 158.576 793.058 158.576L791.057 163.813" fill="white"/>
</g>
<path fill-rule="evenodd" clip-rule="evenodd" d="M814.17 166.374H932.216V244.48C932.216 247.467 929.794 249.888 926.808 249.888H819.578C816.591 249.888 814.17 247.467 814.17 244.48V166.374H814.17Z" fill="#F8F8F8"/>
<rect x="806" y="163.812" width="134.386" height="6.92096" rx="3.45048" fill="white"/>
<mask id="mask10_61_635" style="mask-type:luminance" maskUnits="userSpaceOnUse" x="806" y="163" width="135" height="8">
<rect x="806" y="163.812" width="134.386" height="6.92096" rx="3.45048" fill="white"/>
</mask>
<g mask="url(#mask10_61_635)">
<path d="M800.394 170.734C802.728 166.961 935.654 171.61 940.386 167.273C945.117 162.936 944.784 175.681 944.784 175.681L785.388 185.484" fill="white"/>
</g>
<rect x="806" y="163.812" width="134.386" height="6.92096" rx="3.45048" fill="#F4F4F4"/>
<path d="M850.98 183.89C848.336 182.227 845.277 181.345 842.154 181.344C832.9 181.344 825.398 188.889 825.398 198.198H842.154L850.98 183.89Z" fill="#3BFFF5"/>
<path d="M842.154 198.197H825.398C825.393 204.016 828.392 209.425 833.329 212.505C835.972 214.168 839.032 215.05 842.154 215.051C851.409 215.051 858.911 207.506 858.911 198.197H842.154Z" fill="#ED5017"/>
<path d="M854.945 181.968L846.12 196.275H862.877C862.881 190.456 859.882 185.047 854.945 181.968Z" fill="#FC9905"/>
<rect x="868.217" y="185.484" width="52.7706" height="4.62927" rx="2.30794" fill="#494949"/>
<rect x="868.217" y="195.898" width="28.6443" height="4.62927" rx="2.30794" fill="#424040"/>
<rect x="868.217" y="206.312" width="44.5869" height="4.62927" rx="2.30794" fill="#494949"/>
<rect x="823.306" y="221.592" width="99.7745" height="16.9691" fill="white"/>
<mask id="mask11_61_635" style="mask-type:luminance" maskUnits="userSpaceOnUse" x="823" y="221" width="101" height="18">
<rect x="823.306" y="221.592" width="99.7745" height="16.9691" fill="white"/>
</mask>
<g mask="url(#mask11_61_635)">
<path d="M794.9 238.533V235.148C810.848 235.767 809.714 231.2 824.458 233.966C839.202 236.732 840.684 224.896 849.773 229.463C858.861 234.03 861.508 230.106 866.8 231.779C872.093 233.451 877.197 226.311 886.459 229.463C895.722 232.615 898.557 221.551 907.442 225.668C916.326 229.785 929.18 222.902 935.229 226.183C941.278 229.463 949.028 224.96 951.486 225.668V238.533L794.9 238.533Z" fill="white" stroke="#2087C3" stroke-width="1.01477" stroke-linecap="round" stroke-linejoin="round"/>
<path d="M823.306 238.561V236.014C833.467 236.48 832.745 233.044 842.14 235.125C851.534 237.206 852.479 228.301 858.27 231.737C864.061 235.173 865.747 232.221 869.12 233.48C872.492 234.738 875.744 229.366 881.646 231.737C887.548 234.109 889.355 225.784 895.016 228.882C900.677 231.979 908.867 226.801 912.722 229.269C916.576 231.737 921.514 228.349 923.08 228.882V238.561H823.306Z" fill="white" stroke="#09AA64" stroke-width="1.01477" stroke-linecap="round" stroke-linejoin="round"/>
</g>
<rect x="823.306" y="221.592" width="99.7745" height="16.9691" fill="#C0C0C0" fill-opacity="0.2" stroke="#C0C0C0" stroke-linecap="round" stroke-linejoin="round"/>
<path d="M941.682 369.441L965.637 357.004C982.195 367.959 992.3 453.116 992.3 453.116L953.815 432.879L941.682 369.441Z" fill="#BF59F5"/>
<path d="M965.79 390.819C964.899 407.292 963.089 429.132 959.461 454.505L875.843 449.107L842.253 384.907L842.383 355.023C842.383 355.023 900.112 302.333 966.571 357.776" fill="#1B1B1B"/>
<mask id="mask12_61_635" style="mask-type:luminance" maskUnits="userSpaceOnUse" x="842" y="332" width="125" height="123">
<path fill-rule="evenodd" clip-rule="evenodd" d="M965.79 390.819C964.899 407.292 963.089 429.132 959.461 454.505L875.843 449.107L842.253 384.907L842.383 355.023C842.383 355.023 900.112 302.333 966.571 357.776" fill="white"/>
</mask>
<g mask="url(#mask12_61_635)">
<path d="M860.476 387.092C885.339 372.026 865.861 428.848 890.49 421.655C915.119 414.462 918.017 433.09 918.017 433.09L885.96 467.876L828.197 444.1L847.532 403.271" fill="#AE55ED"/>
</g>
<path fill-rule="evenodd" clip-rule="evenodd" d="M965.79 390.819C964.899 407.292 963.089 429.132 959.461 454.505L875.843 449.107L842.253 384.907L842.383 355.023C842.383 355.023 900.112 302.333 966.571 357.776" fill="#CA67FF"/>
<path d="M897.551 333.237L904.518 306.431L924.409 312.925V335.504L925.057 344.158L922.456 349.445L916.993 348.611L905.556 347.6" fill="white"/>
<mask id="mask13_61_635" style="mask-type:luminance" maskUnits="userSpaceOnUse" x="897" y="306" width="29" height="44">
<path fill-rule="evenodd" clip-rule="evenodd" d="M897.551 333.237L904.518 306.431L924.409 312.925V335.504L925.057 344.158L922.456 349.445L916.993 348.611L905.556 347.6" fill="white"/>
</mask>
<g mask="url(#mask13_61_635)">
<path d="M930.562 340.178C905.467 335.232 927.304 329.434 918.363 325.201C915.904 324.036 919.819 311.937 919.819 311.937L926.637 316.423" fill="#FFF2DC"/>
</g>
<path fill-rule="evenodd" clip-rule="evenodd" d="M897.551 333.237L904.518 306.431L924.409 312.925V335.504L925.057 344.158L922.456 349.445L916.993 348.611L905.556 347.6" fill="#FFF2DC"/>
<path d="M909.222 305.615L916.217 288.945L935.878 273.447C938.824 291.351 956.529 341.629 917.507 322.276" fill="#FFF2DC"/>
<path d="M906.558 306.726C913.946 309.673 924.144 294.918 919.79 290.159C919.79 290.159 932.237 295.188 941.006 287.887C970.752 291.745 968.786 254.982 942.695 265.502C929.112 257.984 913.996 265.407 914.655 273.819C904.437 264.736 884.547 297.948 906.558 306.726Z" fill="#1B1B1B"/>
<path d="M905.277 314.692C891.963 303.39 901.926 286.488 917.131 306.929L905.277 314.692Z" fill="#FFF2DC"/>
<path d="M934.347 302.344C933.879 302.495 933.37 302.453 932.933 302.227C932.496 302.002 932.167 301.611 932.019 301.143L931.061 298.15C930.747 297.173 931.281 296.127 932.256 295.808C932.724 295.657 933.233 295.699 933.67 295.925C934.107 296.15 934.436 296.541 934.585 297.009L935.542 300.002C935.856 300.979 935.322 302.025 934.347 302.344Z" fill="#1B1B1B"/>
<path d="M931.927 289.373C926.53 290.858 926.055 293.46 929.489 292.753C932.924 292.046 935.454 288.403 931.927 289.373Z" fill="#1B1B1B"/>
<path d="M938.108 297.71C945.929 299.791 945.729 307.435 940.709 307.259L938.108 297.71Z" fill="#FFF2DC"/>
<path d="M938.108 297.71C945.929 299.791 945.729 307.435 940.709 307.259" stroke="#1B1B1B" stroke-width="1.01477" stroke-linecap="round" stroke-linejoin="round"/>
<ellipse opacity="0.27" cx="928.265" cy="305.413" rx="4.21493" ry="3.12544" transform="rotate(-8.3081 928.265 305.413)" fill="#FFB8B8"/>
<path d="M931.35 309.154C934.657 311.94 938.113 310.429 938.113 310.429L931.35 309.154Z" fill="white"/>
<path d="M931.35 309.154C934.657 311.94 938.113 310.429 938.113 310.429" stroke="#1B1B1B" stroke-width="1.01477" stroke-linecap="round" stroke-linejoin="round"/>
<path d="M926.651 360.873L916.993 348.612C916.993 348.612 924.854 346.295 925.391 330.695L933.122 337.206L926.651 360.873Z" fill="#62337A"/>
<path d="M887.311 333.896C891.356 326.851 899.322 325.52 899.322 325.52C899.322 325.52 897.286 342.694 916.993 348.611L906.641 362.795C906.641 362.795 888.56 345.527 887.311 333.896Z" fill="#62337A"/>
<path d="M844.083 353.59C829.047 365.076 808.353 425.931 822.111 454.504L866.361 435.237C866.361 435.237 862.684 444.78 862.742 443.282C863.016 436.204 867.346 399.876 864.299 383.347" fill="#BF59F5"/>
<path d="M906.236 429.646C906.236 429.646 934.514 426.456 937.512 426.849C940.509 427.243 951.979 424.751 952.713 424.41C959.192 421.405 951.121 431.883 941.16 431.699C941.16 431.699 950.377 437.538 950.45 439.242C950.522 440.946 949.349 440.946 949.349 440.946C949.349 440.946 950.131 442.781 948.741 443.83C943.963 441.296 937.685 439.257 936.99 440.131C936.295 441.005 922.927 446.102 911.72 443.83C900.514 441.558 906.236 429.646 906.236 429.646Z" fill="white"/>
<mask id="mask14_61_635" style="mask-type:luminance" maskUnits="userSpaceOnUse" x="904" y="423" width="52" height="22">
<path fill-rule="evenodd" clip-rule="evenodd" d="M906.236 429.647C906.236 429.647 934.514 426.457 937.512 426.85C940.509 427.244 951.979 424.752 952.713 424.411C959.192 421.406 951.121 431.884 941.16 431.7C941.16 431.7 950.377 437.539 950.45 439.243C950.522 440.947 949.349 440.947 949.349 440.947C949.349 440.947 950.131 442.782 948.741 443.831C943.963 441.297 937.685 439.258 936.99 440.132C936.295 441.006 922.927 446.103 911.72 443.831C900.514 441.559 906.236 429.647 906.236 429.647Z" fill="white"/>
</mask>
<g mask="url(#mask14_61_635)">
<path d="M912.678 429.646C917.761 427.024 921.279 443.015 922.191 448.126C923.103 453.238 910.202 448.52 910.202 448.52" fill="#FFF2DC"/>
</g>
<path fill-rule="evenodd" clip-rule="evenodd" d="M906.236 429.646C906.236 429.646 934.514 426.456 937.512 426.849C940.509 427.243 951.979 424.751 952.713 424.41C959.192 421.405 951.121 431.883 941.16 431.699C941.16 431.699 950.377 437.538 950.45 439.242C950.522 440.946 949.349 440.946 949.349 440.946C949.349 440.946 950.131 442.781 948.741 443.83C943.963 441.296 937.685 439.257 936.99 440.131C936.295 441.005 922.927 446.102 911.72 443.83C900.514 441.558 906.236 429.646 906.236 429.646Z" fill="#FFF2DC"/>
<ellipse cx="917.436" cy="365.076" rx="2.26811" ry="2.28127" fill="#210B0B"/>
<ellipse cx="917.436" cy="383.121" rx="2.26811" ry="2.28127" fill="#1B1B1B"/>
<rect x="879.993" y="449.106" width="73.3595" height="5.35278" fill="#D6D6D6"/>
<path d="M1038.95 454.464H942.203L959.309 379.313C959.704 377.56 961.259 376.313 963.056 376.31H1052.36C1053.43 376.314 1054.43 376.802 1055.1 377.637C1055.76 378.472 1056 379.563 1055.76 380.601L1038.95 454.464Z" fill="#C1C0C0"/>
<path d="M1041.75 454.464H945.003L962.109 379.313C962.504 377.56 964.059 376.313 965.856 376.31H1055.16C1056.23 376.314 1057.24 376.802 1057.9 377.637C1058.56 378.472 1058.8 379.563 1058.56 380.601L1041.75 454.464Z" fill="#D6D6D6"/>
<path d="M856 427.209C882.738 424.693 914.577 428.422 914.577 428.422C918.486 437.859 917.704 451.49 917.704 451.49C917.704 451.49 830.913 472.789 822.111 454.505C821.185 452.582 819.816 448.893 819.491 447.215" fill="#BF59F5"/>
<path d="M903.66 426.721C903.66 426.721 910.335 441.456 906.411 453.969L917.812 452.286C917.812 452.286 919.238 436.76 914.577 428.422L903.66 426.721Z" fill="#810BC0"/>
<ellipse cx="1006.78" cy="411.427" rx="10.0989" ry="7.96432" transform="rotate(-44.5194 1006.78 411.427)" fill="#C4BABA"/>
<rect x="931.325" y="378.889" width="21.3269" height="4.23232" fill="#810BC0"/>
<path d="M92.4375 301.219C92.4375 306.109 95.6719 311.156 99.625 313.094L98.125 315.062C95.0625 313.469 92.5 310.172 91.2656 306.312C90.0312 310.406 87.4062 313.922 84.2812 315.594L82.7188 313.625C86.7812 311.625 90 306.297 90.0312 301.219V296.156H92.4375V301.219ZM102.188 321.531V293.75H104.625V305.031H109.281V307.156H104.625V321.531H102.188ZM133.688 293.75V321.594H131.219V293.75H133.688ZM111.812 305.594C111.828 299.688 114.766 295.922 118.906 295.906C123.031 295.922 126.016 299.688 126 305.594C126.016 311.516 123.031 315.266 118.906 315.25C114.766 315.266 111.828 311.516 111.812 305.594ZM114.188 305.594C114.188 310.109 116.125 313.078 118.906 313.062C121.703 313.078 123.625 310.109 123.625 305.594C123.625 301.078 121.703 298.109 118.906 298.094C116.125 298.109 114.188 301.078 114.188 305.594ZM160.875 307.125V309.156H141.688V296.344H160.594V298.375H144.125V307.125H160.875ZM138.438 317.75V315.688H163.875V317.75H138.438ZM199.562 315.875V317.969H174.125V315.875H199.562ZM176.375 298.594V296.562H197.125V298.594H192.719V308.312H197.062V310.312H176.438V308.312H180.781V298.594H176.375ZM183.219 308.312H190.312V298.594H183.219V308.312ZM227.219 316.031V318.094H201.781V316.031H213.219V310.781H204.969V302.219H221.594V297.844H204.906V295.812H224V304.219H207.406V308.75H224.656V310.781H215.625V316.031H227.219ZM247.625 294.375V310.5H245.25V302.969H241V300.938H245.25V294.375H247.625ZM229.562 308.125C233.172 306.609 235.297 303.016 235.281 299.719V298.062H230.094V296.031H242.562V298.062H237.656V299.719C237.656 302.734 239.688 306.031 243.219 307.5L241.938 309.375C239.328 308.281 237.5 306.203 236.531 303.812C235.562 306.516 233.641 308.844 230.875 310.062L229.562 308.125ZM234.312 313.969V311.969H253.031V321.531H250.625V313.969H234.312ZM250.688 310.75V293.75H253.031V310.75H250.688ZM279.594 308.781V310.781H260.375V296.156H279.281V298.219H262.875V302.344H278.688V304.312H262.875V308.781H279.594ZM257.094 317.906V315.875H282.531V317.906H257.094ZM310.156 306.656V308.594H284.719V306.656H310.156ZM287.781 312.656V310.812H306.969V316.719H290.281V319.375H307.875V321.156H287.812V315.031H304.531V312.656H287.781ZM287.938 296.375V294.594H306.875V300.344H290.469V302.781H307.375V304.562H288.031V298.656H304.406V296.375H287.938ZM342.156 293.75V300.031H346.344V302.094H342.156V308H339.719V293.75H342.156ZM321.625 306.906V295.594H334.469V306.906H321.625ZM323.406 320.781V310.5H325.781V318.766C327.391 318.703 329.531 318.469 331.5 317.812L331.875 319.781C329.172 320.672 326.531 320.797 324.719 320.781H323.406ZM324.031 304.938H332.094V297.594H324.031V304.938ZM330.906 312.656V310.781H336.75V308.312H339.156V310.781H344.938V312.656H330.906ZM332.75 317.562C332.734 315.156 334.844 313.672 337.906 313.656C340.953 313.672 343.094 315.156 343.125 317.562C343.094 319.969 340.953 321.469 337.906 321.469C334.844 321.469 332.734 319.969 332.75 317.562ZM334.938 317.562C334.938 318.891 336.172 319.75 337.906 319.719C339.641 319.75 340.875 318.891 340.875 317.562C340.875 316.266 339.641 315.422 337.906 315.406C336.172 315.422 334.938 316.266 334.938 317.562ZM373.406 308.406V310.406H348.094V308.406H373.406ZM350.906 300.25C350.906 296.766 354.719 294.719 360.75 294.75C366.719 294.719 370.547 296.766 370.562 300.25C370.547 303.703 366.719 305.781 360.75 305.781C354.719 305.781 350.906 303.703 350.906 300.25ZM351.375 320.938V312.844H353.844V318.875H370.594V320.938H351.375ZM353.438 300.25C353.422 302.453 356.266 303.781 360.75 303.781C365.203 303.781 368.047 302.453 368.062 300.25C368.047 298.078 365.203 296.719 360.75 296.719C356.266 296.719 353.422 298.078 353.438 300.25ZM393.094 301.219C393.094 306.109 396.328 311.156 400.281 313.094L398.781 315.062C395.719 313.469 393.156 310.172 391.922 306.312C390.688 310.406 388.062 313.922 384.938 315.594L383.375 313.625C387.438 311.625 390.656 306.297 390.688 301.219V296.156H393.094V301.219ZM402.844 321.531V293.75H405.281V305.031H409.938V307.156H405.281V321.531H402.844ZM433.156 293.781V300.906H437.375V303H433.156V310.344H430.719V293.781H433.156ZM412.625 297.312V295.281H425.219V302.875H415.094V306.812C420.031 306.828 423.609 306.672 427.938 305.969L428.188 307.938C423.734 308.719 420.016 308.875 414.844 308.875H412.688V300.969H422.812V297.312H412.625ZM415.562 321.156V311.719H433.156V321.156H415.562ZM417.969 319.156H430.781V313.625H417.969V319.156ZM464.438 305.438V307.406H439.094V305.438H464.438ZM442.156 311.812V309.906H461.156V316.344H444.656V319.219H462V321.219H442.219V314.5H458.75V311.812H442.156ZM442.469 303.156V294.719H461.125V296.688H444.938V301.156H461.406V303.156H442.469ZM482.156 296.844V298.281C482.141 300.484 482.141 304.156 481.344 309.312L478.875 309.094C479.641 304.438 479.703 301.062 479.688 298.844H468.031V296.844H482.156ZM466.469 313.375C468.297 313.359 470.328 313.344 472.469 313.297V304.781H474.875V313.219C477.953 313.109 481.109 312.906 484 312.562L484.125 314.406C478.281 315.312 471.75 315.438 466.781 315.406L466.469 313.375ZM485.75 321.531V293.75H488.188V305.375H492.688V307.5H488.188V321.531H485.75ZM515 311.312C520.953 311.312 524.734 313.188 524.75 316.406C524.734 319.594 520.953 321.469 515 321.469C509.047 321.469 505.266 319.594 505.281 316.406C505.266 313.188 509.047 311.312 515 311.312ZM502.469 308.719V306.719H512.938V301.344H515.344V306.719H527.75V308.719H502.469ZM505.469 297.188V295.188H524.531V297.531C524.516 299.781 524.516 302.031 523.75 304.906L521.344 304.625C522.094 301.766 522.094 299.703 522.094 297.531V297.188H505.469ZM507.719 316.406C507.703 318.344 510.578 319.531 515 319.531C519.438 319.531 522.281 318.344 522.312 316.406C522.281 314.422 519.438 313.203 515 313.188C510.578 313.203 507.703 314.422 507.719 316.406ZM555.5 309.594V311.625H548.781V321.531H546.312V311.625H539.188V321.531H536.656V311.625H530.062V309.594H555.5ZM532.938 300.938C532.953 297.234 536.875 294.891 542.719 294.875C548.547 294.891 552.5 297.234 552.5 300.938C552.5 304.641 548.547 306.953 542.719 306.938C536.875 306.953 532.953 304.641 532.938 300.938ZM535.469 300.938C535.438 303.391 538.391 304.969 542.719 304.969C547.047 304.969 549.984 303.391 550 300.938C549.984 298.469 547.047 296.875 542.719 296.875C538.391 296.875 535.438 298.469 535.469 300.938ZM571.625 298.562V300.562H557.688V298.562H563.469V294.594H565.906V298.562H571.625ZM558.688 308.75C558.688 305.062 561.203 302.453 564.656 302.438C568.156 302.453 570.656 305.062 570.688 308.75C570.656 312.484 568.156 315.109 564.656 315.125C561.203 315.109 558.688 312.484 558.688 308.75ZM560.875 308.75C560.875 311.219 562.453 312.984 564.656 312.969C566.875 312.984 568.5 311.219 568.5 308.75C568.5 306.312 566.875 304.531 564.656 304.5C562.453 304.531 560.875 306.312 560.875 308.75ZM573.062 320.156V294.438H575.375V305.469H579.062V293.75H581.406V321.531H579.062V307.5H575.375V320.156H573.062ZM610.844 315.938V317.969H585.406V315.938H596.844V309.938H588.406V295.719H590.875V300.75H605.312V295.719H607.719V309.938H599.25V315.938H610.844ZM590.875 307.938H605.312V302.75H590.875V307.938ZM621.312 301.656C621.312 306.078 623.469 310.844 627.156 313.031L625.75 314.938C623.062 313.312 621.141 310.344 620.172 306.953C619.156 310.656 617.094 313.844 614.312 315.531L612.75 313.688C616.594 311.438 618.938 306.516 618.938 301.75V296.375H621.312V301.656ZM624.094 305.812V303.719H628.812V294.344H631.125V320.125H628.812V305.812H624.094ZM634.5 321.531V293.75H636.875V321.531H634.5ZM666.156 315.906V317.969H640.719V315.906H647.031V308.422C644.656 307.188 643.219 305.188 643.219 302.656C643.219 298.359 647.438 295.531 653.375 295.5C659.312 295.531 663.531 298.359 663.531 302.656C663.531 305.141 662.141 307.109 659.844 308.344V315.906H666.156ZM645.594 302.656C645.578 305.766 648.812 307.844 653.375 307.844C657.891 307.844 661.156 305.766 661.156 302.656C661.156 299.547 657.891 297.5 653.375 297.531C648.812 297.5 645.578 299.547 645.594 302.656ZM649.438 315.906H657.375V309.297C656.172 309.609 654.828 309.781 653.375 309.781C651.953 309.781 650.625 309.625 649.438 309.312V315.906ZM671.312 319.188C670.219 319.172 669.281 318.266 669.312 317.156C669.281 316.062 670.219 315.156 671.312 315.156C672.422 315.156 673.328 316.062 673.312 317.156C673.328 318.266 672.422 319.172 671.312 319.188Z" fill="white"/>
<path d="M107.977 233.719V262H102.898L90.4766 244.031H90.2422V262H84.3828V233.719H89.5391L101.883 251.688H102.156V233.719H107.977ZM122.234 262.43C115.73 262.41 111.746 258.211 111.766 251.492C111.746 244.949 115.789 240.516 122 240.516C127.566 240.516 131.961 244.031 131.961 251.258V252.898H117.469C117.469 256.102 119.363 258.074 122.352 258.094C124.324 258.074 125.73 257.215 126.297 255.945H131.805C130.984 259.871 127.469 262.41 122.234 262.43ZM117.469 249.266H126.492C126.473 246.688 124.695 244.832 122.117 244.852C119.461 244.832 117.586 246.824 117.469 249.266ZM139.617 262L133.836 240.789H139.695L143.016 255.125H143.211L146.688 240.789H152.43L155.945 255.047H156.141L159.422 240.789H165.281L159.461 262H153.367L149.695 248.523H149.422L145.75 262H139.617ZM175.828 233.719H182.43L188.953 245.906H189.227L195.711 233.719H202.312L192 251.922V262H186.141V251.922L175.828 233.719ZM210.477 262.43C203.973 262.41 199.988 258.211 200.008 251.492C199.988 244.949 204.031 240.516 210.242 240.516C215.809 240.516 220.203 244.031 220.203 251.258V252.898H205.711C205.711 256.102 207.605 258.074 210.594 258.094C212.566 258.074 213.973 257.215 214.539 255.945H220.047C219.227 259.871 215.711 262.41 210.477 262.43ZM205.711 249.266H214.734C214.715 246.688 212.938 244.832 210.359 244.852C207.703 244.832 205.828 246.824 205.711 249.266ZM222.82 256.062C222.84 251.336 226.629 249.793 230.711 249.539C232.234 249.441 235.086 249.305 235.984 249.266V247.547C235.965 245.77 234.754 244.754 232.586 244.734C230.613 244.754 229.383 245.633 229.07 247.078H223.562C223.914 243.406 227.117 240.516 232.742 240.516C237.371 240.516 241.746 242.586 241.727 247.703V262H236.258V259.07H236.102C235.066 261.023 233.035 262.41 229.891 262.391C225.828 262.41 222.84 260.262 222.82 256.062ZM228.367 255.906C228.367 257.527 229.676 258.387 231.531 258.406C234.168 258.387 236.004 256.668 235.984 254.422V252.879C235.105 252.918 232.625 253.055 231.648 253.133C229.637 253.309 228.367 254.266 228.367 255.906ZM246.141 262V240.789H251.727V244.461H251.961C252.723 241.863 254.695 240.477 257.078 240.477C257.664 240.477 258.406 240.555 258.914 240.672V245.828C258.367 245.652 257.254 245.516 256.453 245.516C253.836 245.516 251.902 247.332 251.922 249.93V262H246.141ZM269.148 233.719L265.789 244.852H261.648L263.602 233.719H269.148ZM282.391 247.078C282.137 245.594 280.848 244.637 278.914 244.617C277.039 244.637 275.613 245.516 275.633 246.805C275.613 247.762 276.355 248.504 278.367 248.914L282.156 249.695C286.277 250.555 288.27 252.391 288.289 255.438C288.27 259.617 284.52 262.41 278.875 262.43C273.152 262.41 269.793 259.852 269.305 255.711H275.125C275.398 257.371 276.746 258.23 278.875 258.25C280.984 258.23 282.391 257.391 282.391 256.023C282.391 254.93 281.492 254.246 279.5 253.836L275.984 253.133C271.941 252.332 269.871 250.262 269.891 247.117C269.871 243.055 273.367 240.516 278.836 240.516C284.188 240.516 287.508 243.055 287.82 247.078H282.391ZM320.086 243.562C319.617 240.438 317.215 238.543 313.914 238.523C309.52 238.543 306.609 241.902 306.609 247.859C306.609 253.953 309.559 257.176 313.875 257.195C317.098 257.176 319.52 255.418 320.086 252.352L326.023 252.391C325.379 257.625 320.984 262.391 313.797 262.391C306.238 262.391 300.633 257.059 300.633 247.859C300.633 238.621 306.336 233.328 313.797 233.328C320.32 233.328 325.242 237.059 326.023 243.562H320.086ZM339.539 262.43C333.133 262.41 329.129 258.016 329.148 251.453C329.129 244.91 333.133 240.516 339.539 240.516C345.965 240.516 349.949 244.91 349.969 251.453C349.949 258.016 345.965 262.41 339.539 262.43ZM335.008 251.453C335.008 255.164 336.551 257.918 339.578 257.938C342.527 257.918 344.09 255.164 344.07 251.453C344.09 247.723 342.527 244.93 339.578 244.93C336.551 244.93 335.008 247.723 335.008 251.453ZM359.383 233.719V262H353.602V233.719H359.383ZM369.656 233.719V262H363.875V233.719H369.656ZM373.133 256.062C373.152 251.336 376.941 249.793 381.023 249.539C382.547 249.441 385.398 249.305 386.297 249.266V247.547C386.277 245.77 385.066 244.754 382.898 244.734C380.926 244.754 379.695 245.633 379.383 247.078H373.875C374.227 243.406 377.43 240.516 383.055 240.516C387.684 240.516 392.059 242.586 392.039 247.703V262H386.57V259.07H386.414C385.379 261.023 383.348 262.41 380.203 262.391C376.141 262.41 373.152 260.262 373.133 256.062ZM378.68 255.906C378.68 257.527 379.988 258.387 381.844 258.406C384.48 258.387 386.316 256.668 386.297 254.422V252.879C385.418 252.918 382.938 253.055 381.961 253.133C379.949 253.309 378.68 254.266 378.68 255.906ZM396.57 262V233.719H402.352V244.344H402.508C403.309 242.625 404.988 240.516 408.562 240.516C413.25 240.516 417.176 244.148 417.195 251.414C417.176 258.504 413.406 262.352 408.562 262.352C405.105 262.352 403.348 260.359 402.508 258.602H402.273V262H396.57ZM402.234 251.375C402.215 255.203 403.875 257.723 406.727 257.742C409.676 257.723 411.277 255.125 411.258 251.375C411.277 247.684 409.715 245.125 406.727 245.125C403.855 245.125 402.215 247.566 402.234 251.375ZM430.438 262.43C424.031 262.41 420.027 258.016 420.047 251.453C420.027 244.91 424.031 240.516 430.438 240.516C436.863 240.516 440.848 244.91 440.867 251.453C440.848 258.016 436.863 262.41 430.438 262.43ZM425.906 251.453C425.906 255.164 427.449 257.918 430.477 257.938C433.426 257.918 434.988 255.164 434.969 251.453C434.988 247.723 433.426 244.93 430.477 244.93C427.449 244.93 425.906 247.723 425.906 251.453ZM444.5 262V240.789H450.086V244.461H450.32C451.082 241.863 453.055 240.477 455.438 240.477C456.023 240.477 456.766 240.555 457.273 240.672V245.828C456.727 245.652 455.613 245.516 454.812 245.516C452.195 245.516 450.262 247.332 450.281 249.93V262H444.5ZM458.484 256.062C458.504 251.336 462.293 249.793 466.375 249.539C467.898 249.441 470.75 249.305 471.648 249.266V247.547C471.629 245.77 470.418 244.754 468.25 244.734C466.277 244.754 465.047 245.633 464.734 247.078H459.227C459.578 243.406 462.781 240.516 468.406 240.516C473.035 240.516 477.41 242.586 477.391 247.703V262H471.922V259.07H471.766C470.73 261.023 468.699 262.41 465.555 262.391C461.492 262.41 458.504 260.262 458.484 256.062ZM464.031 255.906C464.031 257.527 465.34 258.387 467.195 258.406C469.832 258.387 471.668 256.668 471.648 254.422V252.879C470.77 252.918 468.289 253.055 467.312 253.133C465.301 253.309 464.031 254.266 464.031 255.906ZM492.977 240.789V245.125H488.992V255.477C488.973 257.176 489.812 257.586 490.984 257.625C491.57 257.625 492.586 257.566 493.289 257.508V262.078C492.664 262.176 491.629 262.293 490.203 262.273C486.023 262.293 483.172 260.418 483.211 256.297V245.125H480.281V240.789H483.211V235.711H488.992V240.789H492.977ZM496.609 262V240.789H502.391V262H496.609ZM496.336 235.086C496.336 233.445 497.762 232.137 499.5 232.117C501.219 232.137 502.645 233.445 502.625 235.086C502.645 236.688 501.219 238.016 499.5 238.016C497.762 238.016 496.336 236.688 496.336 235.086ZM516.414 262.43C510.008 262.41 506.004 258.016 506.023 251.453C506.004 244.91 510.008 240.516 516.414 240.516C522.84 240.516 526.824 244.91 526.844 251.453C526.824 258.016 522.84 262.41 516.414 262.43ZM511.883 251.453C511.883 255.164 513.426 257.918 516.453 257.938C519.402 257.918 520.965 255.164 520.945 251.453C520.965 247.723 519.402 244.93 516.453 244.93C513.426 244.93 511.883 247.723 511.883 251.453ZM536.258 249.734V262H530.477V240.789H535.984V244.5H536.219C537.176 242.059 539.441 240.516 542.586 240.516C547.02 240.516 549.91 243.543 549.891 248.484V262H544.148V249.5C544.129 246.883 542.723 245.32 540.32 245.32C537.918 245.32 536.258 246.941 536.258 249.734Z" fill="white"/>
</svg>
