<svg width="1440" height="467" viewBox="0 0 1440 467" fill="none" xmlns="http://www.w3.org/2000/svg">
<rect width="1440" height="467" fill="#213555"/>
<rect x="1031.26" y="102.194" width="186.465" height="259.674" rx="14.9388" fill="white"/>
<rect x="1031.26" y="102.194" width="186.465" height="259.674" rx="14.9388" fill="#3E5879"/>
<rect x="1046.53" y="115.238" width="155.917" height="233.588" rx="2.72222" fill="white"/>
<rect x="1063.06" y="153.637" width="20.7183" height="20.7853" rx="10.3592" fill="#554E4E"/>
<rect x="1091.08" y="156.392" width="102.817" height="15.2776" rx="7.63879" fill="#554E4E"/>
<rect x="1063.06" y="280.912" width="20.7183" height="20.7853" rx="10.3592" fill="#554E4E"/>
<rect x="1091.08" y="283.665" width="102.817" height="15.2776" rx="7.63879" fill="#554E4E"/>
<rect x="1063.06" y="196.062" width="20.7183" height="20.7853" rx="10.3592" fill="#554E4E"/>
<rect x="1091.08" y="198.817" width="102.817" height="15.2776" rx="7.63879" fill="#554E4E"/>
<rect x="1063.06" y="238.486" width="20.7183" height="20.7853" rx="10.3592" fill="#554E4E"/>
<rect x="1091.08" y="241.241" width="102.817" height="15.2776" rx="7.63879" fill="#554E4E"/>
<path fill-rule="evenodd" clip-rule="evenodd" d="M1140.05 93.6054H1148.58C1159.57 93.6054 1168.48 102.546 1168.48 113.575V115.829C1168.48 116.73 1168.13 117.594 1167.49 118.232C1166.85 118.87 1165.99 119.23 1165.09 119.231H1083.89C1082.99 119.23 1082.13 118.871 1081.49 118.233C1080.85 117.594 1080.5 116.73 1080.5 115.829V113.575C1080.5 102.546 1089.41 93.6054 1100.4 93.6054H1108.94C1108.94 84.9869 1115.9 78 1124.49 78C1133.08 78 1140.05 84.9869 1140.05 93.6054ZM1118.56 96.0718C1119.56 98.465 1121.9 100.021 1124.49 100.012H1124.49C1126.19 100.01 1127.81 99.3331 1129.01 98.1317C1130.21 96.9302 1130.88 95.3022 1130.88 93.6058C1130.88 91.0127 1129.31 88.6754 1126.92 87.6851C1124.52 86.6947 1121.76 87.2466 1119.93 89.0831C1118.1 90.9196 1117.56 93.6785 1118.56 96.0718Z" fill="#CECECE"/>
<mask id="mask0_2021_2112" style="mask-type:luminance" maskUnits="userSpaceOnUse" x="1080" y="78" width="89" height="42">
<path fill-rule="evenodd" clip-rule="evenodd" d="M1148.58 93.6054H1140.05C1140.05 84.9869 1133.08 78 1124.49 78C1115.9 78 1108.94 84.9869 1108.94 93.6054H1100.4C1089.41 93.6054 1080.5 102.546 1080.5 113.575V115.829C1080.5 116.73 1080.85 117.594 1081.49 118.233C1082.13 118.871 1082.99 119.23 1083.89 119.231H1165.09C1165.99 119.23 1166.85 118.87 1167.49 118.232C1168.13 117.594 1168.48 116.73 1168.48 115.829V113.575C1168.48 102.546 1159.57 93.6054 1148.58 93.6054ZM1124.49 100.012C1121.9 100.021 1119.56 98.465 1118.56 96.0718C1117.56 93.6785 1118.1 90.9196 1119.93 89.0831C1121.76 87.2466 1124.52 86.6947 1126.92 87.6851C1129.31 88.6754 1130.88 91.0127 1130.88 93.6058C1130.88 95.3022 1130.21 96.9302 1129.01 98.1317C1127.81 99.3331 1126.19 100.01 1124.49 100.012H1124.49Z" fill="white"/>
</mask>
<g mask="url(#mask0_2021_2112)">
<path d="M1158.3 85.9939C1176.94 114.354 1137.24 120.759 1085.97 112.126C1034.7 103.493 1091.24 125.819 1091.24 125.819L1191.98 129.138L1182.96 85.6922L1154.99 83.4961" fill="#999999"/>
</g>
<path d="M1197.79 324.057C1195.64 327.138 1192.75 329.637 1189.39 331.328" stroke="#1B1B1B" stroke-width="1.01477" stroke-linecap="round" stroke-linejoin="round"/>
<path d="M1238.7 278.846L1207.46 276.923C1202.68 276.629 1199.57 271.743 1201.32 267.266L1205.18 257.366C1205.93 255.432 1207.49 253.926 1209.45 253.248C1211.41 252.571 1213.57 252.792 1215.36 253.852L1240.44 268.774L1238.7 278.846Z" fill="white"/>
<mask id="mask1_2021_2112" style="mask-type:luminance" maskUnits="userSpaceOnUse" x="1200" y="252" width="41" height="27">
<path fill-rule="evenodd" clip-rule="evenodd" d="M1238.7 278.845L1207.46 276.922C1202.68 276.628 1199.57 271.742 1201.32 267.265L1205.18 257.365C1205.93 255.431 1207.49 253.925 1209.45 253.247C1211.41 252.57 1213.57 252.791 1215.36 253.851L1240.44 268.773L1238.7 278.845Z" fill="white"/>
</mask>
<g mask="url(#mask1_2021_2112)">
<path d="M1234.48 260.712C1233.71 268.654 1230.43 272.398 1225.09 268.976C1219.75 265.555 1225.99 272.398 1231.14 274.658C1236.28 276.918 1205.73 278.844 1205.18 257.364C1204.81 243.118 1200.06 271.588 1200.06 271.588L1200.82 283.116L1206.24 286.344L1229.27 290.218L1239.69 280.017V266.459L1234.48 260.712Z" fill="white"/>
</g>
<path d="M1241.24 363.497H1192.12C1187.81 363.489 1184.32 359.985 1184.32 355.67V288.861H1241.24L1241.24 363.497Z" fill="white"/>
<path fill-rule="evenodd" clip-rule="evenodd" d="M1241.24 363.497H1192.12C1187.81 363.489 1184.32 359.985 1184.32 355.67V288.861H1241.24L1241.24 363.497Z" fill="#ECE5DC"/>
<path d="M1238.62 363.497H1287.74C1292.06 363.489 1295.55 359.985 1295.54 355.67V288.861H1238.62L1238.62 363.497Z" fill="#F5EFE7"/>
<rect opacity="0.06" x="1184.32" y="285.511" width="54.2992" height="16.588" fill="black"/>
<rect opacity="0.06" x="1238.62" y="285.511" width="56.9167" height="16.588" fill="black"/>
<path d="M1242.51 276.207H1183.32C1181.17 276.211 1179.43 277.956 1179.44 280.105V292.064C1179.43 293.431 1180.54 294.541 1181.91 294.543H1238.62V280.105C1238.62 277.956 1240.36 276.211 1242.51 276.207Z" fill="#ECE5DC"/>
<path d="M1297.53 276.207H1242.51C1240.36 276.211 1238.62 277.956 1238.62 280.105V294.543H1298.95C1300.31 294.541 1301.42 293.431 1301.42 292.064V280.105C1301.42 277.956 1299.68 276.211 1297.53 276.207Z" fill="#F5EFE7"/>
<path d="M1198.18 281.028L1194.43 284.944" stroke="#1B1B1B" stroke-width="1.01477" stroke-linecap="round" stroke-linejoin="round"/>
<path d="M1222.97 183.686L1223.2 183.826L1222.87 183.149L1220.56 170.705C1219.62 165.669 1213.92 163.159 1209.59 165.875L1199.38 172.284C1198.18 173.015 1197.25 174.101 1196.7 175.39C1195.39 178.6 1194.58 184.67 1204.49 188.56C1218.47 194.053 1223.64 187.299 1223.64 187.299L1222.97 183.686Z" fill="#1B1B1B"/>
<path d="M1230.78 228.038L1200.49 226.35C1200.49 226.35 1195.04 221.878 1192.91 222.973C1189.72 224.622 1184.5 227.781 1182.09 228.648C1182.09 228.648 1181.99 231.603 1189.01 228.414C1189.01 228.414 1190.97 232.705 1198.62 231.72L1238.45 238.825L1230.78 228.038Z" fill="#FFE6C0"/>
<path d="M1206.64 226.693C1206.64 226.693 1206.1 233.054 1211.09 236.787L1238.21 239.07C1244.17 239.954 1249.01 234.27 1247.19 228.498L1237.6 197.926C1236.72 193.27 1232.18 190.123 1227.34 190.806V190.806C1222.01 191.557 1218.51 196.589 1219.82 201.636L1225.93 225.225L1206.64 226.693Z" fill="white"/>
<path fill-rule="evenodd" clip-rule="evenodd" d="M1206.64 226.693C1206.64 226.693 1206.1 233.054 1211.09 236.787L1238.21 239.07C1244.17 239.954 1249.01 234.27 1247.19 228.498L1237.6 197.926C1236.72 193.27 1232.18 190.123 1227.34 190.806V190.806C1222.01 191.557 1218.51 196.589 1219.82 201.636L1225.93 225.225L1206.64 226.693Z" fill="#FB9349"/>
<path d="M1196.13 278.848L1212.48 299.287L1221.55 295.482L1207.03 273.983L1202.65 281.036" fill="white"/>
<mask id="mask2_2021_2112" style="mask-type:luminance" maskUnits="userSpaceOnUse" x="1196" y="273" width="26" height="27">
<path fill-rule="evenodd" clip-rule="evenodd" d="M1196.13 278.848L1212.48 299.287L1221.55 295.482L1207.03 273.983L1202.65 281.036" fill="white"/>
</mask>
<g mask="url(#mask2_2021_2112)">
<path d="M1214.97 282.926C1212.04 291.086 1207.04 286.816 1207.41 293.078C1207.78 299.34 1199.42 288.145 1199.42 288.145L1202.11 286.532L1213.5 282.238" fill="white"/>
</g>
<path fill-rule="evenodd" clip-rule="evenodd" d="M1196.13 278.848L1212.48 299.287L1221.55 295.482L1207.03 273.983L1202.65 281.036" fill="#FFE6C0"/>
<path d="M1200.99 316.34C1200.99 316.34 1195.5 310.051 1205.07 306.138C1214.3 302.36 1208.72 296.698 1208.72 296.698L1220.05 293.017L1224.77 298.4C1225.42 299.145 1225.19 300.119 1224.2 300.782L1200.99 316.34Z" fill="#1B1B1B"/>
<path d="M1198.37 288.514C1198.37 288.514 1209.96 287.844 1213.88 282.994L1199.59 260.715L1232.44 273.234C1234.92 267.429 1218.05 257.482 1236.64 274.831L1239.44 266.514C1239.81 266.655 1240.97 269.362 1241.34 269.222C1245.06 267.815 1241.22 268.485 1242.46 264.299L1248.64 254.598V254.598L1244.31 253.231L1193.79 241.777C1187.33 239.606 1180.09 240.956 1176.1 245.077V245.077C1172.55 248.744 1172.31 253.858 1175.49 258.081L1198.37 288.514Z" fill="#112951"/>
<path d="M1194.5 283.471C1194.5 283.471 1197.24 289.103 1198.58 290.363C1198.58 290.363 1211.02 291.526 1214.77 282.688L1210.97 276.969C1210.97 276.969 1206.33 286.094 1194.5 283.471Z" fill="#0F6CBA"/>
<path d="M1186.44 283.856L1205.32 308.712L1213.81 301.892L1196.6 275.262L1193.19 285.653" fill="white"/>
<mask id="mask3_2021_2112" style="mask-type:luminance" maskUnits="userSpaceOnUse" x="1186" y="275" width="28" height="34">
<path fill-rule="evenodd" clip-rule="evenodd" d="M1186.44 283.857L1205.32 308.713L1213.81 301.893L1196.6 275.263L1193.19 285.654" fill="white"/>
</mask>
<g mask="url(#mask3_2021_2112)">
<path d="M1205.38 287.214C1202.58 294.391 1195.67 294.581 1198.46 300.763C1201.26 306.946 1191.14 301.032 1191.14 301.032L1191.49 291.589L1200.59 289.589" fill="white"/>
</g>
<path fill-rule="evenodd" clip-rule="evenodd" d="M1186.44 283.856L1205.32 308.712L1213.81 301.892L1196.6 275.262L1193.19 285.653" fill="#FFE6C0"/>
<path d="M1196.17 334.001C1196.17 334.001 1189.9 326.436 1198.87 319.38C1207.53 312.566 1201.26 305.87 1201.26 305.87L1212 298.809L1217.39 305.281C1218.14 306.175 1218.03 307.543 1217.14 308.626L1196.17 334.001Z" fill="#1B1B1B"/>
<path d="M1190.72 296.459C1190.72 296.459 1202.12 293.449 1205.38 286.138L1188.28 258.406L1234.9 276.152C1237.96 277.316 1241.3 277.469 1244.45 276.589V276.589C1250.47 274.903 1254.86 269.746 1255.57 263.541L1257.28 248.725L1236.11 241.199L1231.63 240.124L1180.05 233.681C1173.36 231.898 1166.37 235.045 1162.96 241.376V241.376C1159.92 247.009 1160.35 254.012 1164.05 259.184L1190.72 296.459Z" fill="white"/>
<mask id="mask4_2021_2112" style="mask-type:luminance" maskUnits="userSpaceOnUse" x="1160" y="233" width="98" height="64">
<path fill-rule="evenodd" clip-rule="evenodd" d="M1190.72 296.459C1190.72 296.459 1202.12 293.449 1205.38 286.138L1188.28 258.406L1234.9 276.152C1237.96 277.316 1241.3 277.469 1244.45 276.589V276.589C1250.47 274.903 1254.86 269.746 1255.57 263.541L1257.28 248.725L1236.11 241.199L1231.63 240.124L1180.05 233.681C1173.36 231.898 1166.37 235.045 1162.96 241.376V241.376C1159.92 247.009 1160.35 254.012 1164.05 259.184L1190.72 296.459Z" fill="white"/>
</mask>
<g mask="url(#mask4_2021_2112)">
<path d="M1203.53 225.149C1236.06 239.866 1251.84 238.663 1252.5 249.193C1253.15 259.723 1240.31 272.138 1220.63 262.347C1200.96 252.556 1251.35 278.477 1251.35 278.477C1251.35 278.477 1272.64 261.528 1273.54 260.626C1274.44 259.723 1275.04 243.347 1274.14 241.607C1273.24 239.866 1262.45 232.255 1262.45 232.255L1260.01 228.434" fill="#47B6D2"/>
</g>
<path fill-rule="evenodd" clip-rule="evenodd" d="M1190.72 296.459C1190.72 296.459 1202.12 293.449 1205.38 286.138L1188.28 258.406L1234.9 276.152C1237.96 277.316 1241.3 277.469 1244.45 276.589V276.589C1250.47 274.903 1254.86 269.746 1255.57 263.541L1257.28 248.725L1236.11 241.199L1231.63 240.124L1180.05 233.681C1173.36 231.898 1166.37 235.045 1162.96 241.376V241.376C1159.92 247.009 1160.35 254.012 1164.05 259.184L1190.72 296.459Z" fill="#112951"/>
<path d="M1218.21 180.817L1231.45 189.482L1225.74 202.703L1208.68 188.627L1218.21 180.817V180.817Z" fill="white"/>
<mask id="mask5_2021_2112" style="mask-type:luminance" maskUnits="userSpaceOnUse" x="1208" y="180" width="24" height="23">
<path fill-rule="evenodd" clip-rule="evenodd" d="M1218.21 180.817L1231.45 189.482L1225.74 202.703L1208.68 188.627L1218.21 180.817V180.817Z" fill="white"/>
</mask>
<g mask="url(#mask5_2021_2112)">
<path d="M1216.8 186.564C1217.19 192.949 1216.18 194.249 1217.97 196.893C1219.77 199.536 1212.54 196.777 1212.54 196.777L1209.17 191.634L1215.82 184.782" fill="white"/>
</g>
<path fill-rule="evenodd" clip-rule="evenodd" d="M1218.21 180.817L1231.45 189.482L1225.74 202.703L1208.68 188.627L1218.21 180.817V180.817Z" fill="#FFE6C0"/>
<path d="M1217.19 184.306L1215.83 181.493C1211.84 182.574 1203.74 183.628 1200.66 175.752C1198.34 180.015 1202.42 192.167 1207.19 194.661C1209.24 195.736 1214.44 192.188 1217 189.73" fill="#FFE6C0"/>
<path d="M1212.86 182.594C1214.79 174.166 1222.45 179.746 1216.63 184.783Z" fill="#FFE6C0"/>
<path d="M1228.78 240.217C1228.78 240.217 1248.49 249.721 1261.69 249.346C1261.69 249.346 1269.98 197.18 1228.1 186.565L1218.49 195.57C1218.49 195.57 1214.03 210.015 1228.78 240.217Z" fill="white"/>
<path fill-rule="evenodd" clip-rule="evenodd" d="M1228.78 240.217C1228.78 240.217 1248.49 249.721 1261.69 249.346C1261.69 249.346 1269.98 197.18 1228.1 186.565L1218.49 195.57C1218.49 195.57 1214.03 210.015 1228.78 240.217Z" fill="#FFA260"/>
<path d="M1214.4 238.375L1178.39 234.131L1162.82 197.107L1167.05 197.56L1180.98 230.671L1214.83 234.661L1214.4 238.375V238.375Z" fill="white"/>
<path fill-rule="evenodd" clip-rule="evenodd" d="M1214.4 238.375L1178.39 234.131L1162.82 197.107L1167.05 197.56L1180.98 230.671L1214.83 234.661L1214.4 238.375V238.375Z" fill="#D9D9D9"/>
<path d="M1235.13 229.627L1204.83 227.939C1204.83 227.939 1199.39 223.467 1197.26 224.562C1194.06 226.211 1188.85 229.369 1186.44 230.237C1186.44 230.237 1186.34 233.192 1193.35 230.002C1193.35 230.002 1195.32 234.294 1202.97 233.309L1242.8 240.414L1235.13 229.627Z" fill="white"/>
<mask id="mask6_2021_2112" style="mask-type:luminance" maskUnits="userSpaceOnUse" x="1186" y="224" width="57" height="17">
<path fill-rule="evenodd" clip-rule="evenodd" d="M1235.13 229.627L1204.83 227.939C1204.83 227.939 1199.39 223.467 1197.26 224.562C1194.06 226.211 1188.85 229.369 1186.44 230.237C1186.44 230.237 1186.34 233.192 1193.35 230.002C1193.35 230.002 1195.32 234.294 1202.97 233.309L1242.8 240.414L1235.13 229.627Z" fill="white"/>
</mask>
<g mask="url(#mask6_2021_2112)">
<path d="M1212.7 226.746C1209.64 226.335 1211.77 232.842 1210.39 234.633C1209.01 236.423 1213.93 235.917 1213.93 235.917L1213.01 229.719" fill="#FFE6C0"/>
<path d="M1209.11 228.176C1214.03 228.429 1206.11 234.381 1208.43 236.974C1210.75 239.567 1214.83 234.66 1214.83 234.66L1212.77 228.145" fill="#FFE6C0"/>
</g>
<path fill-rule="evenodd" clip-rule="evenodd" d="M1235.13 229.627L1204.83 227.939C1204.83 227.939 1199.39 223.467 1197.26 224.562C1194.06 226.211 1188.85 229.369 1186.44 230.237C1186.44 230.237 1186.34 233.192 1193.35 230.002C1193.35 230.002 1195.32 234.294 1202.97 233.309L1242.8 240.414L1235.13 229.627Z" fill="#FFE6C0"/>
<path d="M1225.3 207.578L1230.27 226.812L1210.99 228.281C1210.99 228.281 1209.85 235.771 1214.83 239.504L1242.55 240.658C1248.52 241.542 1253.35 235.858 1251.54 230.086L1241.95 199.514" fill="white"/>
<mask id="mask7_2021_2112" style="mask-type:luminance" maskUnits="userSpaceOnUse" x="1210" y="199" width="42" height="42">
<path fill-rule="evenodd" clip-rule="evenodd" d="M1225.3 207.578L1230.27 226.812L1210.99 228.281C1210.99 228.281 1209.85 235.771 1214.83 239.504L1242.55 240.658C1248.52 241.542 1253.35 235.858 1251.54 230.086L1241.95 199.514" fill="white"/>
</mask>
<g mask="url(#mask7_2021_2112)">
<path d="M1256.58 210.662L1258.97 215.509L1264.3 216.286L1260.44 220.059L1261.35 225.387L1256.58 222.872L1251.81 225.387L1252.72 220.059L1248.86 216.286L1254.2 215.509L1256.58 210.662V210.662Z" fill="white" stroke="#1B1B1B" stroke-width="1.01477" stroke-linecap="round" stroke-linejoin="round"/>
</g>
<path fill-rule="evenodd" clip-rule="evenodd" d="M1225.3 207.578L1230.27 226.812L1210.99 228.281C1210.99 228.281 1209.85 235.771 1214.83 239.504L1242.55 240.658C1248.52 241.542 1253.35 235.858 1251.54 230.086L1241.95 199.514" fill="#FB9349"/>
<path d="M1225.2 182.979C1225.2 182.979 1219.03 192.084 1218.49 195.569L1217.86 198.38L1228.1 186.565C1228.1 186.565 1227.78 183.782 1225.2 182.979Z" fill="#AF3A3A"/>
<path d="M1185.53 290.362C1185.53 290.362 1189.18 295.446 1190.72 296.459C1190.72 296.459 1203.17 295.486 1205.38 286.138L1201.85 280.425C1201.85 280.425 1197.64 290.931 1185.53 290.362Z" fill="#0F6CBA"/>
<ellipse cx="1219.6" cy="200.386" rx="0.467451" ry="0.468966" stroke="#1B1B1B" stroke-width="1.01477" stroke-linecap="round" stroke-linejoin="round"/>
<ellipse cx="1220.78" cy="211.133" rx="0.467451" ry="0.468966" stroke="#1B1B1B" stroke-width="1.01477" stroke-linecap="round" stroke-linejoin="round"/>
<ellipse cx="1222.98" cy="220.602" rx="0.467451" ry="0.468966" stroke="#1B1B1B" stroke-width="1.01477" stroke-linecap="round" stroke-linejoin="round"/>
<path d="M1205.36 186.434V186.434C1205.83 186.317 1206.11 185.845 1206 185.378L1205.65 183.947C1205.59 183.723 1205.45 183.53 1205.25 183.41C1205.05 183.29 1204.82 183.254 1204.59 183.309V183.309C1204.13 183.426 1203.84 183.898 1203.96 184.365L1204.31 185.796C1204.36 186.02 1204.51 186.213 1204.7 186.333C1204.9 186.453 1205.14 186.489 1205.36 186.434Z" fill="#1B1B1B"/>
<path d="M1203.15 180.663C1205.67 179.918 1206.5 180.838 1204.95 181.407C1203.4 181.975 1201.5 181.149 1203.15 180.663Z" fill="#1B1B1B"/>
<path d="M1202.72 185.517C1200.11 188.283 1202.06 191.281 1204.02 189.968Z" fill="#FFE6C0"/>
<path d="M1202.72 185.517C1200.11 188.283 1202.06 191.281 1204.02 189.968" stroke="#1B1B1B" stroke-width="1.01477" stroke-linecap="round" stroke-linejoin="round"/>
<ellipse opacity="0.27" cx="1208.55" cy="186.15" rx="1.98104" ry="1.46405" transform="rotate(-23.7824 1208.55 186.15)" fill="#FE8888"/>
<path d="M1208.23 188.405C1207.89 189.515 1206.98 190.352 1205.84 190.589Z" fill="white"/>
<path d="M1208.23 188.405C1207.89 189.515 1206.98 190.352 1205.84 190.589" stroke="#1B1B1B" stroke-width="1.01477" stroke-linecap="round" stroke-linejoin="round"/>
<path d="M1214.99 181.708C1215.03 181.37 1215.27 181.09 1215.6 180.999C1215.93 180.908 1216.28 181.025 1216.48 181.293C1216.69 181.562 1216.72 181.93 1216.55 182.224" stroke="#1B1B1B" stroke-width="1.01477" stroke-linecap="round" stroke-linejoin="round"/>
<path d="M1208.53 172.809C1208.66 173.76 1209.16 174.619 1209.93 175.19" stroke="#1B1B1B" stroke-width="1.01477" stroke-linecap="round" stroke-linejoin="round"/>
<path d="M1188.89 258.923L1186.64 257.004" stroke="#1B1B1B" stroke-width="1.01477" stroke-linecap="round" stroke-linejoin="round"/>
<path d="M1215.84 247.481C1215.49 249.504 1215.6 251.578 1216.16 253.554" stroke="#1B1B1B" stroke-width="1.01477" stroke-linecap="round" stroke-linejoin="round"/>
<path d="M1199 309.111C1200.11 310.176 1201.64 310.699 1203.17 310.54L1196.07 314.912" stroke="#1B1B1B" stroke-width="1.01477" stroke-linecap="round" stroke-linejoin="round"/>
<rect opacity="0.44" x="984.031" y="250.371" width="16.8566" height="16.9545" rx="2.02236" fill="white"/>
<rect opacity="0.44" x="984.031" y="280.275" width="16.8566" height="16.9545" rx="2.02236" fill="white"/>
<path d="M973.447 356.155L976.216 354.477" stroke="#1B1B1B" stroke-width="1.01477" stroke-linecap="round" stroke-linejoin="round"/>
<rect x="928.693" y="202.26" width="0.621773" height="13.849" fill="white"/>
<mask id="mask8_2021_2112" style="mask-type:luminance" maskUnits="userSpaceOnUse" x="928" y="202" width="2" height="15">
<rect x="928.693" y="202.26" width="0.621773" height="13.849" fill="white"/>
</mask>
<g mask="url(#mask8_2021_2112)">
<path d="M926.994 205.41C926.057 207.28 930.077 206.067 931.434 208.797C932.79 211.526 931.014 203.995 931.014 203.995L926.408 204.753" fill="white"/>
<path d="M926.994 205.41C926.057 207.28 930.077 206.067 931.434 208.797C932.79 211.526 931.014 203.995 931.014 203.995L926.408 204.753" stroke="#1B1B1B" stroke-width="1.01477" stroke-linecap="round" stroke-linejoin="round"/>
</g>
<rect x="928.693" y="202.26" width="0.621773" height="13.849" stroke="#757575" stroke-width="1.01477" stroke-linecap="round" stroke-linejoin="round"/>
<ellipse cx="929.004" cy="217.287" rx="2.01008" ry="2.02175" fill="white" stroke="#757575" stroke-width="1.01477" stroke-linecap="round" stroke-linejoin="round"/>
<ellipse cx="929.004" cy="217.287" rx="1.11671" ry="1.1232" fill="white" stroke="#757575" stroke-width="1.01477" stroke-linecap="round" stroke-linejoin="round"/>
<path d="M881.566 139.383H976.442V202.158C976.442 204.559 974.496 206.505 972.096 206.505H885.913C883.512 206.505 881.566 204.559 881.566 202.158V139.383H881.566Z" fill="white"/>
<mask id="mask9_2021_2112" style="mask-type:luminance" maskUnits="userSpaceOnUse" x="881" y="139" width="96" height="68">
<path fill-rule="evenodd" clip-rule="evenodd" d="M881.566 139.383H976.442V202.158C976.442 204.559 974.496 206.505 972.096 206.505H885.913C883.512 206.505 881.566 204.559 881.566 202.158V139.383H881.566Z" fill="white"/>
</mask>
<g mask="url(#mask9_2021_2112)">
<path d="M876.257 163.113C868.631 133.286 983.226 148.45 976.442 142.888C969.659 137.325 864.598 133.116 864.598 133.116L862.99 137.325" fill="white"/>
</g>
<path fill-rule="evenodd" clip-rule="evenodd" d="M881.566 139.383H976.442V202.158C976.442 204.559 974.496 206.505 972.096 206.505H885.913C883.512 206.505 881.566 204.559 881.566 202.158V139.383H881.566Z" fill="#F8F8F8"/>
<rect x="875" y="137.324" width="108.008" height="5.56251" rx="2.78125" fill="white"/>
<mask id="mask10_2021_2112" style="mask-type:luminance" maskUnits="userSpaceOnUse" x="875" y="137" width="109" height="6">
<rect x="875" y="137.324" width="108.008" height="5.56251" rx="2.78125" fill="white"/>
</mask>
<g mask="url(#mask10_2021_2112)">
<path d="M870.494 142.887C872.371 139.855 979.206 143.592 983.008 140.106C986.811 136.62 986.543 146.864 986.543 146.864L858.434 154.742" fill="white"/>
</g>
<rect x="875" y="137.324" width="108.008" height="5.56251" rx="2.78125" fill="#F4F4F4"/>
<path d="M911.151 153.462C909.026 152.125 906.568 151.416 904.058 151.415C896.62 151.415 890.59 157.48 890.59 164.961H904.058L911.151 153.462Z" fill="#3BFFF5"/>
<path d="M904.058 164.96H890.59C890.587 169.637 892.997 173.984 896.965 176.459C899.089 177.796 901.548 178.505 904.058 178.506C911.496 178.506 917.526 172.441 917.526 164.96H904.058Z" fill="#ED5017"/>
<path d="M914.338 151.916L907.245 163.415H920.713C920.716 158.738 918.306 154.391 914.338 151.916Z" fill="#FC9905"/>
<rect x="925.005" y="154.742" width="42.4127" height="3.72063" rx="1.86032" fill="#494949"/>
<rect x="925.005" y="163.112" width="23.022" height="3.72063" rx="1.86032" fill="#424040"/>
<rect x="925.005" y="171.482" width="35.8354" height="3.72063" rx="1.86032" fill="#494949"/>
<rect x="888.909" y="183.763" width="80.1907" height="13.6384" fill="white"/>
<mask id="mask11_2021_2112" style="mask-type:luminance" maskUnits="userSpaceOnUse" x="888" y="183" width="82" height="15">
<rect x="888.909" y="183.763" width="80.1907" height="13.6384" fill="white"/>
</mask>
<g mask="url(#mask11_2021_2112)">
<path d="M866.079 197.379V194.658C878.896 195.156 877.985 191.485 889.835 193.708C901.685 195.931 902.876 186.419 910.181 190.089C917.486 193.76 919.613 190.606 923.866 191.95C928.12 193.295 932.222 187.556 939.667 190.089C947.111 192.623 949.39 183.73 956.531 187.039C963.671 190.348 974.002 184.816 978.864 187.453C983.726 190.089 989.955 186.47 991.93 187.039V197.379L866.079 197.379Z" fill="white" stroke="#2087C3" stroke-width="1.01477" stroke-linecap="round" stroke-linejoin="round"/>
<path d="M888.909 197.402V195.355C897.076 195.729 896.495 192.968 904.046 194.64C911.597 196.313 912.356 189.156 917.01 191.917C921.665 194.679 923.02 192.306 925.73 193.318C928.441 194.329 931.055 190.011 935.798 191.917C940.542 193.823 941.994 187.133 946.544 189.622C951.094 192.112 957.676 187.95 960.774 189.933C963.872 191.917 967.841 189.194 969.099 189.622V197.402H888.909Z" fill="white" stroke="#09AA64" stroke-width="1.01477" stroke-linecap="round" stroke-linejoin="round"/>
</g>
<rect x="888.909" y="183.763" width="80.1907" height="13.6384" fill="#C0C0C0" fill-opacity="0.2" stroke="#C0C0C0" stroke-linecap="round" stroke-linejoin="round"/>
<path d="M984.05 302.593L1003.3 292.597C1016.61 301.401 1024.73 369.844 1024.73 369.844L993.802 353.579L984.05 302.593Z" fill="#BF59F5"/>
<path d="M1003.43 319.774C1002.71 333.014 1001.26 350.567 998.34 370.96L931.135 366.621L904.137 315.023L904.242 291.005C904.242 291.005 950.64 248.657 1004.05 293.217" fill="#1B1B1B"/>
<mask id="mask12_2021_2112" style="mask-type:luminance" maskUnits="userSpaceOnUse" x="904" y="272" width="101" height="99">
<path fill-rule="evenodd" clip-rule="evenodd" d="M1003.43 319.774C1002.71 333.014 1001.26 350.567 998.34 370.96L931.135 366.621L904.137 315.023L904.242 291.005C904.242 291.005 950.64 248.657 1004.05 293.217" fill="white"/>
</mask>
<g mask="url(#mask12_2021_2112)">
<path d="M918.783 316.778C938.766 304.669 923.111 350.338 942.906 344.557C962.701 338.776 965.031 353.748 965.031 353.748L939.266 381.706L892.84 362.596L908.38 329.782" fill="#AE55ED"/>
</g>
<path fill-rule="evenodd" clip-rule="evenodd" d="M1003.43 319.774C1002.71 333.014 1001.26 350.567 998.34 370.96L931.135 366.621L904.137 315.023L904.242 291.005C904.242 291.005 950.64 248.657 1004.05 293.217" fill="#CA67FF"/>
<path d="M948.581 273.494L954.181 251.949L970.168 257.169V275.316L970.689 282.271L968.598 286.52L964.207 285.851L955.015 285.038" fill="white"/>
<mask id="mask13_2021_2112" style="mask-type:luminance" maskUnits="userSpaceOnUse" x="948" y="251" width="23" height="36">
<path fill-rule="evenodd" clip-rule="evenodd" d="M948.581 273.494L954.181 251.949L970.168 257.169V275.316L970.689 282.271L968.598 286.52L964.207 285.851L955.015 285.038" fill="white"/>
</mask>
<g mask="url(#mask13_2021_2112)">
<path d="M975.113 279.073C954.944 275.098 972.494 270.438 965.309 267.036C963.332 266.1 966.478 256.375 966.478 256.375L971.958 259.981" fill="#FFF2DC"/>
</g>
<path fill-rule="evenodd" clip-rule="evenodd" d="M948.581 273.494L954.181 251.949L970.168 257.169V275.316L970.689 282.271L968.598 286.52L964.207 285.851L955.015 285.038" fill="#FFF2DC"/>
<path d="M957.961 251.294L963.583 237.897L979.386 225.44C981.753 239.83 995.983 280.24 964.62 264.685" fill="#FFF2DC"/>
<path d="M955.82 252.187C961.759 254.555 969.955 242.697 966.455 238.872C966.455 238.872 976.459 242.913 983.507 237.045C1007.41 240.146 1005.83 210.599 984.864 219.054C973.948 213.012 961.798 218.978 962.328 225.739C954.115 218.438 938.129 245.131 955.82 252.187Z" fill="#1B1B1B"/>
<path d="M954.791 258.589C944.09 249.506 952.097 235.921 964.318 252.35Z" fill="#FFF2DC"/>
<path d="M978.155 248.665V248.665C977.779 248.786 977.37 248.752 977.019 248.571C976.668 248.39 976.403 248.076 976.284 247.699L975.514 245.294C975.262 244.509 975.691 243.668 976.474 243.411V243.411C976.851 243.29 977.26 243.324 977.611 243.505C977.962 243.687 978.227 244 978.346 244.377L979.116 246.782C979.368 247.567 978.939 248.409 978.155 248.665V248.665Z" fill="#1B1B1B"/>
<path d="M976.21 238.241C971.872 239.434 971.491 241.526 974.251 240.957C977.011 240.389 979.044 237.461 976.21 238.241Z" fill="#1B1B1B"/>
<path d="M981.178 244.94C987.464 246.613 987.303 252.756 983.268 252.615Z" fill="#FFF2DC"/>
<path d="M981.178 244.94C987.464 246.613 987.303 252.756 983.268 252.615" stroke="#1B1B1B" stroke-width="1.01477" stroke-linecap="round" stroke-linejoin="round"/>
<ellipse opacity="0.27" cx="973.266" cy="251.132" rx="3.38762" ry="2.51198" transform="rotate(-8.3081 973.266 251.132)" fill="#FFB8B8"/>
<path d="M975.746 254.139C978.404 256.377 981.182 255.163 981.182 255.163Z" fill="white"/>
<path d="M975.746 254.139C978.404 256.377 981.182 255.163 981.182 255.163" stroke="#1B1B1B" stroke-width="1.01477" stroke-linecap="round" stroke-linejoin="round"/>
<path d="M971.97 295.706L964.207 285.851C964.207 285.851 970.525 283.989 970.957 271.451L977.171 276.684L971.97 295.706Z" fill="#62337A"/>
<path d="M940.351 274.025C943.602 268.362 950.005 267.292 950.005 267.292C950.005 267.292 948.368 281.096 964.207 285.851L955.887 297.251C955.887 297.251 941.355 283.373 940.351 274.025Z" fill="#62337A"/>
<path d="M905.608 289.853C893.524 299.084 876.891 347.994 887.949 370.959L923.513 355.474C923.513 355.474 920.558 363.144 920.605 361.94C920.825 356.251 924.305 327.053 921.856 313.769" fill="#BF59F5"/>
<path d="M955.562 350.979C955.562 350.979 978.289 348.416 980.698 348.732C983.107 349.048 992.326 347.045 992.916 346.772C998.123 344.356 991.636 352.777 983.631 352.63C983.631 352.63 991.039 357.323 991.097 358.692C991.155 360.062 990.213 360.062 990.213 360.062C990.213 360.062 990.841 361.537 989.724 362.379C985.884 360.343 980.838 358.705 980.279 359.407C979.721 360.109 968.977 364.205 959.97 362.379C950.962 360.553 955.562 350.979 955.562 350.979Z" fill="white"/>
<mask id="mask14_2021_2112" style="mask-type:luminance" maskUnits="userSpaceOnUse" x="954" y="346" width="41" height="17">
<path fill-rule="evenodd" clip-rule="evenodd" d="M955.562 350.98C955.562 350.98 978.289 348.417 980.698 348.733C983.107 349.049 992.326 347.046 992.916 346.773C998.123 344.357 991.636 352.778 983.631 352.631C983.631 352.631 991.039 357.324 991.097 358.693C991.155 360.063 990.213 360.063 990.213 360.063C990.213 360.063 990.841 361.538 989.724 362.38C985.884 360.344 980.838 358.706 980.279 359.408C979.721 360.11 968.977 364.206 959.97 362.38C950.962 360.554 955.562 350.98 955.562 350.98Z" fill="white"/>
</mask>
<g mask="url(#mask14_2021_2112)">
<path d="M960.74 350.98C964.824 348.873 967.652 361.725 968.385 365.833C969.118 369.941 958.75 366.149 958.75 366.149" fill="#FFF2DC"/>
</g>
<path fill-rule="evenodd" clip-rule="evenodd" d="M955.562 350.979C955.562 350.979 978.289 348.416 980.698 348.732C983.107 349.048 992.326 347.045 992.916 346.772C998.123 344.356 991.636 352.777 983.631 352.63C983.631 352.63 991.039 357.323 991.097 358.692C991.155 360.062 990.213 360.062 990.213 360.062C990.213 360.062 990.841 361.537 989.724 362.379C985.884 360.343 980.838 358.705 980.279 359.407C979.721 360.109 968.977 364.205 959.97 362.379C950.962 360.553 955.562 350.979 955.562 350.979Z" fill="#FFF2DC"/>
<ellipse cx="964.563" cy="299.084" rx="1.82292" ry="1.8335" fill="#210B0B"/>
<ellipse cx="964.563" cy="313.587" rx="1.82292" ry="1.8335" fill="#1B1B1B"/>
<rect x="934.47" y="366.621" width="58.9605" height="4.30214" fill="#D6D6D6"/>
<path d="M1062.23 370.927H984.469L998.218 310.526C998.535 309.117 999.785 308.115 1001.23 308.112H1073.01C1073.86 308.116 1074.67 308.508 1075.2 309.179C1075.74 309.85 1075.93 310.727 1075.74 311.561L1062.23 370.927Z" fill="#C1C0C0"/>
<path d="M1064.48 370.927H986.72L1000.47 310.526C1000.79 309.117 1002.04 308.115 1003.48 308.112H1075.26C1076.11 308.116 1076.92 308.508 1077.45 309.179C1077.99 309.85 1078.18 310.727 1077.99 311.561L1064.48 370.927Z" fill="#D6D6D6"/>
<path d="M915.186 349.021C936.676 346.999 962.265 349.996 962.265 349.996C965.407 357.581 964.779 368.536 964.779 368.536C964.779 368.536 895.024 385.655 887.949 370.959C887.205 369.414 886.105 366.449 885.843 365.101" fill="#BF59F5"/>
<path d="M953.492 348.629C953.492 348.629 958.856 360.472 955.702 370.529L964.865 369.176C964.865 369.176 966.011 356.698 962.265 349.996L953.492 348.629Z" fill="#810BC0"/>
<ellipse cx="1036.37" cy="336.337" rx="8.11666" ry="6.40108" transform="rotate(-44.5194 1036.37 336.337)" fill="#C4BABA"/>
<rect x="975.726" y="310.186" width="17.1409" height="3.40159" fill="#810BC0"/>
<path d="M90.672 251.032H92.848V256.216C92.848 257.816 92.6453 259.384 92.24 260.92C91.856 262.456 91.3013 263.896 90.576 265.24C89.8507 266.584 88.9973 267.779 88.016 268.824C87.0347 269.869 85.968 270.701 84.816 271.32L83.184 269.176C84.2507 268.643 85.232 267.928 86.128 267.032C87.0453 266.115 87.8453 265.069 88.528 263.896C89.2107 262.723 89.7333 261.485 90.096 260.184C90.48 258.861 90.672 257.539 90.672 256.216V251.032ZM91.152 251.032H93.296V256.216C93.296 257.496 93.4773 258.765 93.84 260.024C94.224 261.283 94.7573 262.467 95.44 263.576C96.1227 264.685 96.9013 265.677 97.776 266.552C98.672 267.427 99.632 268.12 100.656 268.632L99.024 270.744C97.8933 270.168 96.848 269.379 95.888 268.376C94.9493 267.373 94.1173 266.232 93.392 264.952C92.688 263.651 92.1333 262.264 91.728 260.792C91.344 259.299 91.152 257.773 91.152 256.216V251.032ZM103.184 248.536H105.84V277.496H103.184V248.536ZM105.232 260.248H110.576V262.52H105.232V260.248ZM134.062 248.536H136.718V277.528H134.062V248.536ZM121.454 250.776C122.883 250.776 124.142 251.192 125.23 252.024C126.339 252.835 127.203 253.997 127.822 255.512C128.462 257.027 128.782 258.808 128.782 260.856C128.782 262.904 128.462 264.685 127.822 266.2C127.203 267.715 126.339 268.888 125.23 269.72C124.142 270.552 122.883 270.968 121.454 270.968C120.024 270.968 118.755 270.552 117.646 269.72C116.536 268.888 115.662 267.715 115.022 266.2C114.403 264.685 114.094 262.904 114.094 260.856C114.094 258.808 114.403 257.027 115.022 255.512C115.662 253.997 116.536 252.835 117.646 252.024C118.755 251.192 120.024 250.776 121.454 250.776ZM121.454 253.144C120.494 253.144 119.651 253.464 118.926 254.104C118.222 254.723 117.667 255.619 117.262 256.792C116.856 257.944 116.654 259.299 116.654 260.856C116.654 262.413 116.856 263.779 117.262 264.952C117.667 266.104 118.222 267 118.926 267.64C119.651 268.28 120.494 268.6 121.454 268.6C122.392 268.6 123.214 268.28 123.918 267.64C124.643 267 125.208 266.104 125.614 264.952C126.019 263.779 126.222 262.413 126.222 260.856C126.222 259.299 126.019 257.944 125.614 256.792C125.208 255.619 124.643 254.723 123.918 254.104C123.214 253.464 122.392 253.144 121.454 253.144ZM145.803 262.424H165.675V264.6H145.803V262.424ZM142.475 271.352H168.715V273.56H142.475V271.352ZM145.803 251.224H165.387V253.4H148.427V263.384H145.803V251.224ZM181.506 271.544H207.746V273.784H181.506V271.544ZM183.81 251.448H205.282V253.624H183.81V251.448ZM183.874 263.64H205.218V265.816H183.874V263.64ZM188.29 253.432H190.946V263.896H188.29V253.432ZM198.146 253.432H200.77V263.896H198.146V253.432ZM210.944 271.704H237.184V273.912H210.944V271.704ZM222.688 265.528H225.312V272.632H222.688V265.528ZM214.144 250.68H233.92V259.448H216.832V265.24H214.208V257.336H231.296V252.856H214.144V250.68ZM214.208 264.12H234.592V266.296H214.208V264.12ZM252.317 255.992H257.597V258.168H252.317V255.992ZM256.637 249.176H259.165V265.976H256.637V249.176ZM246.365 252.344H248.477V254.712C248.477 256.205 248.221 257.667 247.709 259.096C247.219 260.525 246.472 261.805 245.469 262.936C244.488 264.045 243.293 264.92 241.885 265.56L240.477 263.48C241.736 262.947 242.803 262.211 243.677 261.272C244.552 260.333 245.213 259.299 245.661 258.168C246.131 257.016 246.365 255.864 246.365 254.712V252.344ZM246.845 252.344H248.925V254.712C248.925 255.757 249.149 256.813 249.597 257.88C250.045 258.925 250.685 259.885 251.517 260.76C252.371 261.613 253.395 262.296 254.589 262.808L253.213 264.856C251.827 264.28 250.653 263.459 249.693 262.392C248.755 261.325 248.04 260.131 247.549 258.808C247.08 257.464 246.845 256.099 246.845 254.712V252.344ZM241.053 250.904H253.917V253.08H241.053V250.904ZM262.237 248.536H264.765V266.232H262.237V248.536ZM245.373 267.512H264.765V277.496H262.141V269.688H245.373V267.512ZM273.179 264.152H293.051V266.296H273.179V264.152ZM269.819 271.544H296.059V273.752H269.819V271.544ZM273.179 251.032H292.763V253.208H275.867V264.792H273.179V251.032ZM275.035 257.464H292.123V259.608H275.035V257.464ZM299.224 261.976H325.464V264.024H299.224V261.976ZM302.36 266.328H322.2V272.504H305.048V275.896H302.424V270.68H319.576V268.248H302.36V266.328ZM302.424 275.192H323.128V277.112H302.424V275.192ZM302.552 249.4H322.104V255.416H305.24V258.552H302.616V253.624H319.48V251.288H302.552V249.4ZM302.616 257.912H322.616V259.832H302.616V257.912ZM358.096 248.536H360.752V263.32H358.096V248.536ZM359.6 255.064H365.008V257.272H359.6V255.064ZM339.472 250.456H352.784V262.264H339.472V250.456ZM350.192 252.568H342.064V260.12H350.192V252.568ZM341.296 274.552H342.704C343.28 274.552 343.952 274.531 344.72 274.488C345.488 274.424 346.298 274.328 347.152 274.2C348.005 274.051 348.848 273.837 349.68 273.56L350.096 275.672C349.178 275.971 348.272 276.195 347.376 276.344C346.501 276.493 345.669 276.589 344.88 276.632C344.09 276.696 343.365 276.728 342.704 276.728H341.296V274.552ZM341.296 265.944H343.888V275.128H341.296V265.944ZM349.072 266.264H363.568V268.248H349.072V266.264ZM356.336 269.304C357.914 269.304 359.194 269.677 360.176 270.424C361.178 271.149 361.68 272.131 361.68 273.368C361.68 274.627 361.178 275.619 360.176 276.344C359.194 277.069 357.914 277.432 356.336 277.432C354.757 277.432 353.466 277.069 352.464 276.344C351.461 275.619 350.96 274.627 350.96 273.368C350.96 272.131 351.461 271.149 352.464 270.424C353.466 269.677 354.757 269.304 356.336 269.304ZM356.336 271.192C355.461 271.192 354.736 271.395 354.16 271.8C353.605 272.184 353.328 272.707 353.328 273.368C353.328 274.029 353.605 274.563 354.16 274.968C354.736 275.373 355.461 275.576 356.336 275.576C357.21 275.576 357.925 275.373 358.48 274.968C359.034 274.563 359.312 274.029 359.312 273.368C359.312 272.707 359.034 272.184 358.48 271.8C357.925 271.395 357.21 271.192 356.336 271.192ZM355.056 263.704H357.648V267.672H355.056V263.704ZM367.725 263.768H393.869V265.912H367.725V263.768ZM371.085 274.68H390.957V276.856H371.085V274.68ZM371.085 268.472H373.741V275.32H371.085V268.472ZM380.781 249.528C382.85 249.528 384.642 249.763 386.157 250.232C387.693 250.68 388.877 251.341 389.709 252.216C390.541 253.069 390.957 254.093 390.957 255.288C390.957 256.483 390.541 257.517 389.709 258.392C388.877 259.267 387.693 259.939 386.157 260.408C384.642 260.856 382.85 261.08 380.781 261.08C378.712 261.08 376.909 260.856 375.373 260.408C373.858 259.939 372.685 259.267 371.853 258.392C371.021 257.517 370.605 256.483 370.605 255.288C370.605 254.093 371.021 253.069 371.853 252.216C372.685 251.341 373.858 250.68 375.373 250.232C376.909 249.763 378.712 249.528 380.781 249.528ZM380.781 251.672C379.288 251.672 377.976 251.821 376.845 252.12C375.736 252.397 374.872 252.813 374.253 253.368C373.634 253.901 373.325 254.541 373.325 255.288C373.325 256.035 373.634 256.685 374.253 257.24C374.872 257.773 375.736 258.189 376.845 258.488C377.976 258.765 379.288 258.904 380.781 258.904C382.317 258.904 383.64 258.765 384.749 258.488C385.858 258.189 386.712 257.773 387.309 257.24C387.928 256.685 388.237 256.035 388.237 255.288C388.237 254.541 387.928 253.901 387.309 253.368C386.712 252.813 385.858 252.397 384.749 252.12C383.64 251.821 382.317 251.672 380.781 251.672ZM413.828 251.032H416.004V256.216C416.004 257.816 415.802 259.384 415.396 260.92C415.012 262.456 414.458 263.896 413.732 265.24C413.007 266.584 412.154 267.779 411.172 268.824C410.191 269.869 409.124 270.701 407.972 271.32L406.34 269.176C407.407 268.643 408.388 267.928 409.284 267.032C410.202 266.115 411.002 265.069 411.684 263.896C412.367 262.723 412.89 261.485 413.252 260.184C413.636 258.861 413.828 257.539 413.828 256.216V251.032ZM414.308 251.032H416.452V256.216C416.452 257.496 416.634 258.765 416.996 260.024C417.38 261.283 417.914 262.467 418.596 263.576C419.279 264.685 420.058 265.677 420.932 266.552C421.828 267.427 422.788 268.12 423.812 268.632L422.18 270.744C421.05 270.168 420.004 269.379 419.044 268.376C418.106 267.373 417.274 266.232 416.548 264.952C415.844 263.651 415.29 262.264 414.884 260.792C414.5 259.299 414.308 257.773 414.308 256.216V251.032ZM426.34 248.536H428.996V277.496H426.34V248.536ZM428.388 260.248H433.732V262.52H428.388V260.248ZM456.002 248.568H458.658V265.816H456.002V248.568ZM457.826 255.96H462.946V258.2H457.826V255.96ZM440.418 267.224H458.658V277.112H440.418V267.224ZM456.066 269.336H443.01V274.936H456.066V269.336ZM437.442 262.104H439.714C441.463 262.104 443.074 262.083 444.546 262.04C446.039 261.997 447.479 261.912 448.866 261.784C450.274 261.656 451.724 261.464 453.218 261.208L453.474 263.352C451.938 263.608 450.455 263.811 449.026 263.96C447.618 264.088 446.156 264.184 444.642 264.248C443.148 264.291 441.506 264.312 439.714 264.312H437.442V262.104ZM437.378 250.104H450.402V258.072H440.066V263.352H437.442V256.024H447.81V252.28H437.378V250.104ZM465.631 260.632H491.807V262.776H465.631V260.632ZM469.119 256.152H488.671V258.296H469.119V256.152ZM469.119 249.496H488.383V251.64H471.743V257.848H469.119V249.496ZM468.799 265.304H488.415V272.088H471.455V275.736H468.863V270.104H485.823V267.384H468.799V265.304ZM468.863 275.032H489.279V277.144H468.863V275.032ZM496.381 251.704H509.437V253.88H496.381V251.704ZM500.893 259.992H503.517V269.784H500.893V259.992ZM508.349 251.704H510.973V253.272C510.973 254.445 510.93 255.981 510.845 257.88C510.781 259.779 510.546 262.072 510.141 264.76L507.517 264.536C507.943 261.912 508.189 259.672 508.253 257.816C508.317 255.96 508.349 254.445 508.349 253.272V251.704ZM514.589 248.536H517.245V277.496H514.589V248.536ZM516.509 260.632H521.853V262.904H516.509V260.632ZM495.101 271.16L494.781 268.952C496.509 268.931 498.397 268.909 500.445 268.888C502.514 268.845 504.605 268.76 506.717 268.632C508.85 268.504 510.887 268.323 512.829 268.088L512.989 270.072C510.983 270.392 508.925 270.627 506.813 270.776C504.722 270.925 502.674 271.032 500.669 271.096C498.663 271.139 496.807 271.16 495.101 271.16ZM547.06 266.808C549.129 266.808 550.911 267.021 552.404 267.448C553.919 267.875 555.081 268.483 555.892 269.272C556.724 270.061 557.14 271.021 557.14 272.152C557.14 273.24 556.724 274.189 555.892 275C555.081 275.789 553.919 276.387 552.404 276.792C550.911 277.219 549.129 277.432 547.06 277.432C545.012 277.432 543.231 277.219 541.716 276.792C540.201 276.387 539.039 275.789 538.228 275C537.417 274.189 537.012 273.24 537.012 272.152C537.012 271.021 537.417 270.061 538.228 269.272C539.039 268.483 540.201 267.875 541.716 267.448C543.231 267.021 545.012 266.808 547.06 266.808ZM547.06 268.856C545.545 268.856 544.233 268.995 543.124 269.272C542.015 269.528 541.151 269.901 540.532 270.392C539.935 270.883 539.636 271.469 539.636 272.152C539.636 272.792 539.935 273.357 540.532 273.848C541.151 274.339 542.015 274.712 543.124 274.968C544.233 275.224 545.545 275.352 547.06 275.352C548.596 275.352 549.919 275.224 551.028 274.968C552.137 274.712 552.991 274.339 553.588 273.848C554.207 273.357 554.516 272.792 554.516 272.152C554.516 271.469 554.207 270.883 553.588 270.392C552.991 269.901 552.137 269.528 551.028 269.272C549.919 268.995 548.596 268.856 547.06 268.856ZM537.204 250.008H555.828V252.152H537.204V250.008ZM534.132 262.008H560.212V264.184H534.132V262.008ZM544.852 256.44H547.476V262.648H544.852V256.44ZM554.292 250.008H556.916V252.44C556.916 253.613 556.884 254.819 556.82 256.056C556.756 257.272 556.521 258.627 556.116 260.12L553.524 259.832C553.908 258.339 554.132 257.016 554.196 255.864C554.26 254.712 554.292 253.571 554.292 252.44V250.008ZM570.258 266.456H572.978V277.496H570.258V266.456ZM580.21 266.456H582.898V277.496H580.21V266.456ZM563.506 265.016H589.746V267.192H563.506V265.016ZM576.562 249.688C578.588 249.688 580.359 249.955 581.874 250.488C583.388 251 584.572 251.725 585.426 252.664C586.279 253.603 586.706 254.723 586.706 256.024C586.706 257.283 586.279 258.392 585.426 259.352C584.572 260.291 583.388 261.016 581.874 261.528C580.359 262.04 578.588 262.296 576.562 262.296C574.578 262.296 572.818 262.04 571.282 261.528C569.767 261.016 568.583 260.291 567.73 259.352C566.876 258.392 566.45 257.283 566.45 256.024C566.45 254.723 566.876 253.603 567.73 252.664C568.583 251.725 569.767 251 571.282 250.488C572.818 249.955 574.578 249.688 576.562 249.688ZM576.562 251.832C575.111 251.832 573.82 252.003 572.69 252.344C571.58 252.685 570.716 253.176 570.098 253.816C569.479 254.435 569.17 255.171 569.17 256.024C569.17 256.856 569.479 257.592 570.098 258.232C570.716 258.851 571.58 259.331 572.69 259.672C573.82 259.992 575.111 260.152 576.562 260.152C578.055 260.152 579.356 259.992 580.466 259.672C581.575 259.331 582.439 258.851 583.058 258.232C583.676 257.592 583.986 256.856 583.986 256.024C583.986 255.171 583.676 254.435 583.058 253.816C582.439 253.176 581.575 252.685 580.466 252.344C579.356 252.003 578.055 251.832 576.562 251.832ZM592.911 253.496H607.279V255.672H592.911V253.496ZM600.111 257.592C601.327 257.592 602.394 257.869 603.311 258.424C604.25 258.979 604.986 259.757 605.519 260.76C606.052 261.741 606.319 262.883 606.319 264.184C606.319 265.485 606.052 266.637 605.519 267.64C604.986 268.621 604.25 269.4 603.311 269.976C602.394 270.531 601.327 270.808 600.111 270.808C598.916 270.808 597.85 270.531 596.911 269.976C595.972 269.4 595.236 268.621 594.703 267.64C594.17 266.637 593.903 265.485 593.903 264.184C593.903 262.883 594.17 261.741 594.703 260.76C595.236 259.779 595.972 259.011 596.911 258.456C597.85 257.88 598.916 257.592 600.111 257.592ZM600.111 259.832C599.386 259.832 598.724 260.024 598.127 260.408C597.551 260.771 597.092 261.283 596.751 261.944C596.431 262.584 596.271 263.331 596.271 264.184C596.271 265.037 596.431 265.795 596.751 266.456C597.092 267.117 597.551 267.629 598.127 267.992C598.724 268.355 599.386 268.536 600.111 268.536C600.858 268.536 601.519 268.355 602.095 267.992C602.671 267.629 603.119 267.117 603.439 266.456C603.78 265.795 603.951 265.037 603.951 264.184C603.951 263.331 603.78 262.584 603.439 261.944C603.119 261.283 602.671 260.771 602.095 260.408C601.519 260.024 600.858 259.832 600.111 259.832ZM614.927 248.536H617.455V277.496H614.927V248.536ZM610.287 260.728H615.759V262.904H610.287V260.728ZM608.719 249.208H611.215V276.088H608.719V249.208ZM598.799 249.4H601.423V254.808H598.799V249.4ZM622.413 271.608H648.653V273.816H622.413V271.608ZM634.157 264.664H636.781V272.248H634.157V264.664ZM625.485 250.584H628.141V255.736H642.861V250.584H645.485V265.4H625.485V250.584ZM628.141 257.912V263.224H642.861V257.912H628.141ZM663.242 258.904H668.81V261.112H663.242V258.904ZM657.866 251.256H659.946V256.792C659.946 258.285 659.786 259.757 659.466 261.208C659.167 262.659 658.719 264.024 658.122 265.304C657.546 266.584 656.842 267.736 656.01 268.76C655.178 269.784 654.239 270.616 653.194 271.256L651.53 269.272C652.511 268.675 653.397 267.928 654.186 267.032C654.975 266.136 655.637 265.133 656.17 264.024C656.725 262.893 657.141 261.72 657.418 260.504C657.717 259.267 657.866 258.029 657.866 256.792V251.256ZM658.378 251.256H660.426V256.696C660.426 257.848 660.554 259.011 660.81 260.184C661.087 261.336 661.471 262.445 661.962 263.512C662.474 264.557 663.103 265.517 663.85 266.392C664.597 267.267 665.439 267.992 666.378 268.568L664.874 270.616C663.829 269.976 662.901 269.165 662.09 268.184C661.279 267.181 660.597 266.061 660.042 264.824C659.487 263.565 659.071 262.243 658.794 260.856C658.517 259.469 658.378 258.083 658.378 256.696V251.256ZM673.898 248.536H676.458V277.496H673.898V248.536ZM668.01 249.144H670.506V276.024H668.01V249.144ZM687.72 263.448H690.344V272.088H687.72V263.448ZM698.408 263.448H701.064V272.088H698.408V263.448ZM681.288 271.576H707.528V273.784H681.288V271.576ZM694.344 250.36C696.392 250.36 698.205 250.669 699.784 251.288C701.362 251.907 702.6 252.771 703.496 253.88C704.413 254.989 704.872 256.301 704.872 257.816C704.872 259.309 704.413 260.621 703.496 261.752C702.6 262.861 701.362 263.725 699.784 264.344C698.205 264.941 696.392 265.24 694.344 265.24C692.317 265.24 690.504 264.941 688.904 264.344C687.325 263.725 686.088 262.861 685.192 261.752C684.296 260.621 683.848 259.309 683.848 257.816C683.848 256.301 684.296 254.989 685.192 253.88C686.088 252.771 687.325 251.907 688.904 251.288C690.504 250.669 692.317 250.36 694.344 250.36ZM694.344 252.472C692.808 252.472 691.442 252.696 690.248 253.144C689.053 253.592 688.114 254.221 687.432 255.032C686.749 255.821 686.408 256.749 686.408 257.816C686.408 258.883 686.749 259.821 687.432 260.632C688.114 261.421 689.053 262.04 690.248 262.488C691.442 262.936 692.808 263.16 694.344 263.16C695.901 263.16 697.277 262.936 698.472 262.488C699.666 262.04 700.605 261.421 701.288 260.632C701.97 259.821 702.312 258.883 702.312 257.816C702.312 256.749 701.97 255.821 701.288 255.032C700.605 254.221 699.666 253.592 698.472 253.144C697.277 252.696 695.901 252.472 694.344 252.472ZM713.925 275.384C713.349 275.384 712.848 275.171 712.421 274.744C711.994 274.317 711.781 273.816 711.781 273.24C711.781 272.579 711.973 272.056 712.357 271.672C712.741 271.288 713.264 271.096 713.925 271.096C714.48 271.096 714.97 271.309 715.397 271.736C715.845 272.163 716.069 272.664 716.069 273.24C716.069 273.88 715.866 274.403 715.461 274.808C715.056 275.192 714.544 275.384 713.925 275.384Z" fill="white"/>
<path d="M84.5284 218V188.909H104.131V193.98H90.679V200.912H103.122V205.983H90.679V212.929H104.188V218H84.5284ZM129.248 196.182L121.62 218H114.802L107.174 196.182H113.566L118.097 211.793H118.325L122.842 196.182H129.248ZM141.585 218.426C139.34 218.426 137.408 217.972 135.789 217.062C134.179 216.144 132.939 214.847 132.067 213.17C131.196 211.485 130.761 209.491 130.761 207.19C130.761 204.946 131.196 202.976 132.067 201.281C132.939 199.586 134.165 198.265 135.746 197.318C137.337 196.371 139.203 195.898 141.343 195.898C142.782 195.898 144.122 196.13 145.363 196.594C146.613 197.048 147.702 197.735 148.63 198.653C149.567 199.572 150.297 200.727 150.817 202.119C151.338 203.502 151.599 205.121 151.599 206.977V208.639H133.175V204.889H145.903C145.903 204.018 145.713 203.246 145.335 202.574C144.956 201.902 144.43 201.376 143.758 200.997C143.095 200.609 142.323 200.415 141.442 200.415C140.524 200.415 139.71 200.628 138.999 201.054C138.299 201.471 137.749 202.034 137.352 202.744C136.954 203.445 136.75 204.226 136.741 205.088V208.653C136.741 209.733 136.94 210.666 137.337 211.452C137.745 212.238 138.317 212.844 139.056 213.27C139.795 213.696 140.671 213.909 141.684 213.909C142.356 213.909 142.972 213.814 143.531 213.625C144.089 213.436 144.567 213.152 144.965 212.773C145.363 212.394 145.666 211.93 145.874 211.381L151.471 211.75C151.187 213.095 150.604 214.269 149.724 215.273C148.853 216.267 147.726 217.044 146.343 217.602C144.97 218.152 143.384 218.426 141.585 218.426ZM155.548 218V196.182H161.414V199.989H161.641C162.039 198.634 162.707 197.612 163.644 196.92C164.582 196.22 165.661 195.869 166.883 195.869C167.186 195.869 167.513 195.888 167.863 195.926C168.213 195.964 168.521 196.016 168.786 196.082V201.452C168.502 201.366 168.109 201.291 167.607 201.224C167.105 201.158 166.646 201.125 166.229 201.125C165.339 201.125 164.544 201.319 163.843 201.707C163.152 202.086 162.603 202.616 162.195 203.298C161.798 203.98 161.599 204.766 161.599 205.656V218H155.548ZM176.315 226.182C175.548 226.182 174.828 226.12 174.156 225.997C173.493 225.884 172.943 225.737 172.508 225.557L173.871 221.04C174.582 221.258 175.221 221.376 175.789 221.395C176.367 221.414 176.864 221.281 177.281 220.997C177.707 220.713 178.052 220.23 178.317 219.548L178.673 218.625L170.846 196.182H177.21L181.727 212.205H181.954L186.513 196.182H192.92L184.44 220.358C184.032 221.532 183.478 222.555 182.778 223.426C182.086 224.307 181.21 224.984 180.15 225.457C179.089 225.94 177.811 226.182 176.315 226.182ZM231.055 199.094H224.834C224.72 198.289 224.488 197.574 224.138 196.949C223.787 196.314 223.338 195.775 222.788 195.33C222.239 194.884 221.605 194.544 220.885 194.307C220.175 194.07 219.403 193.952 218.57 193.952C217.064 193.952 215.752 194.326 214.635 195.074C213.518 195.812 212.651 196.892 212.036 198.312C211.42 199.723 211.112 201.437 211.112 203.455C211.112 205.528 211.42 207.271 212.036 208.682C212.661 210.093 213.532 211.158 214.649 211.878C215.767 212.598 217.059 212.957 218.527 212.957C219.351 212.957 220.113 212.848 220.814 212.631C221.524 212.413 222.154 212.096 222.703 211.679C223.252 211.253 223.707 210.737 224.067 210.131C224.436 209.525 224.692 208.833 224.834 208.057L231.055 208.085C230.894 209.42 230.492 210.708 229.848 211.949C229.214 213.18 228.357 214.283 227.277 215.259C226.207 216.224 224.929 216.991 223.442 217.56C221.964 218.118 220.293 218.398 218.428 218.398C215.833 218.398 213.513 217.811 211.467 216.636C209.431 215.462 207.821 213.762 206.638 211.537C205.464 209.312 204.876 206.617 204.876 203.455C204.876 200.282 205.473 197.583 206.666 195.358C207.859 193.133 209.479 191.437 211.524 190.273C213.57 189.098 215.871 188.511 218.428 188.511C220.113 188.511 221.676 188.748 223.115 189.222C224.564 189.695 225.847 190.386 226.964 191.295C228.082 192.195 228.991 193.298 229.692 194.605C230.402 195.912 230.857 197.408 231.055 199.094ZM245.21 218.426C243.004 218.426 241.096 217.957 239.486 217.02C237.885 216.073 236.65 214.757 235.778 213.071C234.907 211.376 234.472 209.411 234.472 207.176C234.472 204.922 234.907 202.953 235.778 201.267C236.65 199.572 237.885 198.256 239.486 197.318C241.096 196.371 243.004 195.898 245.21 195.898C247.417 195.898 249.32 196.371 250.92 197.318C252.53 198.256 253.771 199.572 254.642 201.267C255.513 202.953 255.949 204.922 255.949 207.176C255.949 209.411 255.513 211.376 254.642 213.071C253.771 214.757 252.53 216.073 250.92 217.02C249.32 217.957 247.417 218.426 245.21 218.426ZM245.239 213.739C246.242 213.739 247.08 213.455 247.753 212.886C248.425 212.309 248.932 211.523 249.273 210.528C249.623 209.534 249.798 208.402 249.798 207.134C249.798 205.865 249.623 204.733 249.273 203.739C248.932 202.744 248.425 201.958 247.753 201.381C247.08 200.803 246.242 200.514 245.239 200.514C244.225 200.514 243.373 200.803 242.682 201.381C242 201.958 241.484 202.744 241.134 203.739C240.793 204.733 240.622 205.865 240.622 207.134C240.622 208.402 240.793 209.534 241.134 210.528C241.484 211.523 242 212.309 242.682 212.886C243.373 213.455 244.225 213.739 245.239 213.739ZM265.935 188.909V218H259.884V188.909H265.935ZM276.833 188.909V218H270.782V188.909H276.833ZM287.902 218.412C286.51 218.412 285.269 218.17 284.18 217.688C283.091 217.195 282.23 216.471 281.595 215.514C280.97 214.548 280.658 213.346 280.658 211.906C280.658 210.694 280.88 209.676 281.325 208.852C281.77 208.028 282.376 207.366 283.143 206.864C283.911 206.362 284.782 205.983 285.757 205.727C286.742 205.472 287.774 205.292 288.854 205.188C290.123 205.055 291.145 204.932 291.922 204.818C292.698 204.695 293.262 204.515 293.612 204.278C293.963 204.042 294.138 203.691 294.138 203.227V203.142C294.138 202.242 293.854 201.546 293.286 201.054C292.727 200.562 291.931 200.315 290.899 200.315C289.81 200.315 288.944 200.557 288.3 201.04C287.656 201.513 287.23 202.11 287.021 202.83L281.425 202.375C281.709 201.049 282.268 199.903 283.101 198.938C283.934 197.962 285.009 197.214 286.325 196.693C287.651 196.163 289.185 195.898 290.928 195.898C292.14 195.898 293.3 196.04 294.408 196.324C295.525 196.608 296.515 197.048 297.376 197.645C298.248 198.241 298.934 199.009 299.436 199.946C299.938 200.874 300.189 201.987 300.189 203.284V218H294.45V214.974H294.28C293.929 215.656 293.461 216.258 292.874 216.778C292.286 217.29 291.581 217.692 290.757 217.986C289.933 218.27 288.982 218.412 287.902 218.412ZM289.635 214.236C290.525 214.236 291.311 214.061 291.993 213.71C292.675 213.35 293.21 212.867 293.598 212.261C293.986 211.655 294.18 210.969 294.18 210.202V207.886C293.991 208.009 293.731 208.123 293.399 208.227C293.077 208.322 292.713 208.412 292.305 208.497C291.898 208.573 291.491 208.644 291.084 208.71C290.677 208.767 290.307 208.819 289.976 208.866C289.266 208.971 288.645 209.136 288.115 209.364C287.585 209.591 287.173 209.899 286.879 210.287C286.586 210.666 286.439 211.139 286.439 211.707C286.439 212.531 286.737 213.161 287.334 213.597C287.94 214.023 288.707 214.236 289.635 214.236ZM304.997 218V188.909H311.048V199.847H311.233C311.498 199.259 311.882 198.663 312.384 198.057C312.895 197.441 313.558 196.93 314.372 196.523C315.196 196.106 316.219 195.898 317.44 195.898C319.031 195.898 320.499 196.314 321.844 197.148C323.188 197.972 324.263 199.217 325.068 200.884C325.873 202.541 326.276 204.619 326.276 207.119C326.276 209.553 325.883 211.608 325.097 213.284C324.32 214.951 323.259 216.215 321.915 217.077C320.58 217.929 319.083 218.355 317.426 218.355C316.252 218.355 315.253 218.161 314.429 217.773C313.615 217.384 312.947 216.897 312.426 216.31C311.905 215.713 311.508 215.112 311.233 214.506H310.963V218H304.997ZM310.92 207.091C310.92 208.388 311.1 209.52 311.46 210.486C311.82 211.452 312.341 212.205 313.023 212.744C313.705 213.275 314.533 213.54 315.509 213.54C316.493 213.54 317.327 213.27 318.009 212.73C318.69 212.181 319.206 211.423 319.557 210.457C319.917 209.482 320.097 208.36 320.097 207.091C320.097 205.831 319.921 204.723 319.571 203.767C319.221 202.811 318.705 202.062 318.023 201.523C317.341 200.983 316.503 200.713 315.509 200.713C314.524 200.713 313.69 200.973 313.009 201.494C312.336 202.015 311.82 202.754 311.46 203.71C311.1 204.667 310.92 205.794 310.92 207.091ZM340.171 218.426C337.965 218.426 336.057 217.957 334.447 217.02C332.846 216.073 331.611 214.757 330.739 213.071C329.868 211.376 329.433 209.411 329.433 207.176C329.433 204.922 329.868 202.953 330.739 201.267C331.611 199.572 332.846 198.256 334.447 197.318C336.057 196.371 337.965 195.898 340.171 195.898C342.378 195.898 344.281 196.371 345.881 197.318C347.491 198.256 348.732 199.572 349.603 201.267C350.474 202.953 350.91 204.922 350.91 207.176C350.91 209.411 350.474 211.376 349.603 213.071C348.732 214.757 347.491 216.073 345.881 217.02C344.281 217.957 342.378 218.426 340.171 218.426ZM340.2 213.739C341.203 213.739 342.041 213.455 342.714 212.886C343.386 212.309 343.893 211.523 344.234 210.528C344.584 209.534 344.759 208.402 344.759 207.134C344.759 205.865 344.584 204.733 344.234 203.739C343.893 202.744 343.386 201.958 342.714 201.381C342.041 200.803 341.203 200.514 340.2 200.514C339.186 200.514 338.334 200.803 337.643 201.381C336.961 201.958 336.445 202.744 336.094 203.739C335.754 204.733 335.583 205.865 335.583 207.134C335.583 208.402 335.754 209.534 336.094 210.528C336.445 211.523 336.961 212.309 337.643 212.886C338.334 213.455 339.186 213.739 340.2 213.739ZM354.844 218V196.182H360.711V199.989H360.938C361.336 198.634 362.004 197.612 362.941 196.92C363.879 196.22 364.958 195.869 366.18 195.869C366.483 195.869 366.809 195.888 367.16 195.926C367.51 195.964 367.818 196.016 368.083 196.082V201.452C367.799 201.366 367.406 201.291 366.904 201.224C366.402 201.158 365.943 201.125 365.526 201.125C364.636 201.125 363.841 201.319 363.14 201.707C362.449 202.086 361.899 202.616 361.492 203.298C361.094 203.98 360.896 204.766 360.896 205.656V218H354.844ZM376.808 218.412C375.416 218.412 374.176 218.17 373.087 217.688C371.998 217.195 371.136 216.471 370.501 215.514C369.876 214.548 369.564 213.346 369.564 211.906C369.564 210.694 369.786 209.676 370.232 208.852C370.677 208.028 371.283 207.366 372.05 206.864C372.817 206.362 373.688 205.983 374.663 205.727C375.648 205.472 376.68 205.292 377.76 205.188C379.029 205.055 380.052 204.932 380.828 204.818C381.605 204.695 382.168 204.515 382.518 204.278C382.869 204.042 383.044 203.691 383.044 203.227V203.142C383.044 202.242 382.76 201.546 382.192 201.054C381.633 200.562 380.838 200.315 379.805 200.315C378.716 200.315 377.85 200.557 377.206 201.04C376.562 201.513 376.136 202.11 375.928 202.83L370.331 202.375C370.615 201.049 371.174 199.903 372.007 198.938C372.84 197.962 373.915 197.214 375.232 196.693C376.557 196.163 378.091 195.898 379.834 195.898C381.046 195.898 382.206 196.04 383.314 196.324C384.431 196.608 385.421 197.048 386.283 197.645C387.154 198.241 387.84 199.009 388.342 199.946C388.844 200.874 389.095 201.987 389.095 203.284V218H383.357V214.974H383.186C382.836 215.656 382.367 216.258 381.78 216.778C381.193 217.29 380.487 217.692 379.663 217.986C378.839 218.27 377.888 218.412 376.808 218.412ZM378.541 214.236C379.431 214.236 380.217 214.061 380.899 213.71C381.581 213.35 382.116 212.867 382.504 212.261C382.893 211.655 383.087 210.969 383.087 210.202V207.886C382.897 208.009 382.637 208.123 382.305 208.227C381.983 208.322 381.619 208.412 381.212 208.497C380.804 208.573 380.397 208.644 379.99 208.71C379.583 208.767 379.214 208.819 378.882 208.866C378.172 208.971 377.552 209.136 377.021 209.364C376.491 209.591 376.079 209.899 375.786 210.287C375.492 210.666 375.345 211.139 375.345 211.707C375.345 212.531 375.643 213.161 376.24 213.597C376.846 214.023 377.613 214.236 378.541 214.236ZM405.395 196.182V200.727H392.256V196.182H405.395ZM395.239 190.955H401.29V211.295C401.29 211.854 401.375 212.29 401.545 212.602C401.716 212.905 401.953 213.118 402.256 213.241C402.568 213.365 402.928 213.426 403.335 213.426C403.619 213.426 403.903 213.402 404.188 213.355C404.472 213.298 404.689 213.256 404.841 213.227L405.793 217.73C405.49 217.825 405.063 217.934 404.514 218.057C403.965 218.189 403.297 218.27 402.511 218.298C401.053 218.355 399.775 218.161 398.676 217.716C397.587 217.271 396.74 216.58 396.134 215.642C395.527 214.705 395.229 213.521 395.239 212.091V190.955ZM409.337 218V196.182H415.388V218H409.337ZM412.376 193.369C411.477 193.369 410.705 193.071 410.061 192.474C409.427 191.868 409.109 191.144 409.109 190.301C409.109 189.468 409.427 188.753 410.061 188.156C410.705 187.55 411.477 187.247 412.376 187.247C413.276 187.247 414.043 187.55 414.678 188.156C415.321 188.753 415.643 189.468 415.643 190.301C415.643 191.144 415.321 191.868 414.678 192.474C414.043 193.071 413.276 193.369 412.376 193.369ZM430.093 218.426C427.887 218.426 425.978 217.957 424.369 217.02C422.768 216.073 421.532 214.757 420.661 213.071C419.79 211.376 419.354 209.411 419.354 207.176C419.354 204.922 419.79 202.953 420.661 201.267C421.532 199.572 422.768 198.256 424.369 197.318C425.978 196.371 427.887 195.898 430.093 195.898C432.299 195.898 434.203 196.371 435.803 197.318C437.413 198.256 438.654 199.572 439.525 201.267C440.396 202.953 440.832 204.922 440.832 207.176C440.832 209.411 440.396 211.376 439.525 213.071C438.654 214.757 437.413 216.073 435.803 217.02C434.203 217.957 432.299 218.426 430.093 218.426ZM430.121 213.739C431.125 213.739 431.963 213.455 432.636 212.886C433.308 212.309 433.815 211.523 434.156 210.528C434.506 209.534 434.681 208.402 434.681 207.134C434.681 205.865 434.506 204.733 434.156 203.739C433.815 202.744 433.308 201.958 432.636 201.381C431.963 200.803 431.125 200.514 430.121 200.514C429.108 200.514 428.256 200.803 427.565 201.381C426.883 201.958 426.367 202.744 426.016 203.739C425.675 204.733 425.505 205.865 425.505 207.134C425.505 208.402 425.675 209.534 426.016 210.528C426.367 211.523 426.883 212.309 427.565 212.886C428.256 213.455 429.108 213.739 430.121 213.739ZM450.817 205.386V218H444.766V196.182H450.533V200.031H450.789C451.272 198.762 452.082 197.759 453.218 197.02C454.354 196.272 455.732 195.898 457.352 195.898C458.867 195.898 460.188 196.229 461.315 196.892C462.442 197.555 463.317 198.502 463.942 199.733C464.567 200.955 464.88 202.413 464.88 204.108V218H458.829V205.188C458.838 203.852 458.497 202.811 457.806 202.062C457.115 201.305 456.163 200.926 454.951 200.926C454.137 200.926 453.417 201.101 452.792 201.452C452.176 201.802 451.693 202.313 451.343 202.986C451.002 203.649 450.827 204.449 450.817 205.386Z" fill="white"/>
</svg>
