<svg width="20" height="20" viewBox="0 0 20 20" fill="none" xmlns="http://www.w3.org/2000/svg">
<path d="M10.4301 15.4485C9.98921 15.2193 9.46233 15.2285 9.02975 15.473L7.36304 16.415C7.01795 16.3404 6.64172 16.3633 6.31522 16.4841L4.42291 17.1841C4.13502 17.2906 3.88815 17.4644 3.74204 17.7144C3.5902 17.9743 3.57599 18.2704 3.68181 18.5336C3.88532 19.04 4.45458 19.3097 5.06581 19.3097H14.89C15.5107 19.3097 16.0881 19.0321 16.2825 18.5117C16.3833 18.2417 16.3583 17.9429 16.1969 17.686C16.0417 17.439 15.7871 17.27 15.4912 17.1693L13.4344 16.4693C13.0878 16.3513 12.6895 16.3408 12.3333 16.4382L10.4301 15.4485Z" fill="#F9FCF8" stroke="#348E2B" stroke-width="0.979167"/>
<path d="M11.2948 5.25787C10.3311 6.69665 10.1101 8.45224 10.552 10.0209C12.0896 9.92141 13.5759 9.11625 14.536 7.68289C15.4997 6.2441 15.7207 4.48852 15.2788 2.91987C13.7412 3.01935 12.2549 3.82451 11.2948 5.25787Z" fill="#70D767" stroke="#70D767" stroke-width="0.712121"/>
<path d="M10.3646 9.33366C10.3783 9.00162 10.5884 8.647 10.7871 8.37438C11.1756 7.84137 11.697 7.41139 12.1537 6.92844C12.5273 6.53353 12.9944 6.21304 13.3639 5.81942C13.4889 5.68631 13.7053 5.57189 13.7916 5.41699" stroke="#348E2B" stroke-width="0.979167" stroke-linecap="round"/>
<path d="M10.6508 11.6874L10.9102 11.7071L11.0078 11.4658C11.8689 9.33649 11.7768 6.82224 10.5445 4.70208C9.31126 2.58031 7.21642 1.33676 5.00391 1.16901L4.74446 1.14934L4.6469 1.39055C3.78571 3.5199 3.87791 6.03415 5.11018 8.15431C6.3434 10.2761 8.43824 11.5196 10.6508 11.6874Z" fill="#70D767" stroke="#F9FCF8" stroke-width="0.712121"/>
<path d="M8.04468 6.4707C8.16541 6.58228 8.25334 6.73478 8.349 6.86678C8.62649 7.24969 8.91423 7.6315 9.16456 8.03295C9.39172 8.39725 9.59158 8.76993 9.78177 9.15405C10.118 9.83301 10.4786 10.65 10.4647 11.4228C10.4551 11.9561 10.4509 12.4703 10.3624 12.9991C10.3102 13.3106 10.254 13.6192 10.193 13.9286C10.151 14.1413 10.1401 14.3623 10.0884 14.5712C10.0708 14.6422 9.98239 14.9582 10.04 15.009" stroke="#348E2B" stroke-width="0.979167" stroke-linecap="round"/>
<path d="M8.06635 6.20715C8.06635 6.04627 8.11024 5.8918 8.14413 5.7357C8.16322 5.64779 8.17919 5.55945 8.19914 5.47169C8.22652 5.35121 8.2301 5.22725 8.25689 5.10671C8.28594 4.97597 8.30482 4.8439 8.33782 4.71384C8.35383 4.65076 8.36682 4.58687 8.38064 4.52329C8.38604 4.49846 8.39872 4.47189 8.39872 4.44629" stroke="#348E2B" stroke-width="0.979167" stroke-linecap="round"/>
<path d="M7.90365 6.37682C7.80025 6.37285 7.69787 6.31961 7.5972 6.29903C7.47045 6.27312 7.34381 6.24309 7.21769 6.21417C7.12519 6.19296 7.03669 6.15381 6.94739 6.12224C6.89957 6.10533 6.84933 6.09486 6.80085 6.07981C6.77837 6.07283 6.7537 6.05859 6.72974 6.05859" stroke="#348E2B" stroke-width="0.979167" stroke-linecap="round"/>
</svg>
