<?xml version="1.0" standalone="no"?>
<!DOCTYPE svg PUBLIC "-//W3C//DTD SVG 20010904//EN"
 "http://www.w3.org/TR/2001/REC-SVG-20010904/DTD/svg10.dtd">
<svg version="1.0" xmlns="http://www.w3.org/2000/svg"
 width="128.000000pt" height="128.000000pt" viewBox="0 0 128.000000 128.000000"
 preserveAspectRatio="xMidYMid meet">

<g transform="translate(0.000000,128.000000) scale(0.100000,-0.100000)"
fill="#000000" stroke="none">
<path d="M560 1260 c-212 -29 -397 -160 -488 -345 -53 -107 -67 -168 -66 -295
1 -98 5 -127 28 -195 63 -183 188 -319 364 -394 70 -29 82 -20 82 60 l0 59
-58 0 c-81 0 -119 23 -160 98 -19 34 -47 71 -63 83 -38 27 -37 39 3 39 26 0
42 -10 83 -53 60 -64 82 -77 130 -77 45 0 75 15 75 38 0 10 7 27 15 39 15 21
14 22 -41 34 -130 29 -204 106 -224 234 -13 84 -6 135 27 195 20 36 25 57 24
106 -3 91 5 114 39 114 15 0 54 -14 86 -31 57 -29 60 -30 141 -22 46 5 120 5
166 0 81 -8 84 -7 141 22 32 17 71 31 86 31 34 0 42 -23 39 -114 -1 -49 4 -70
24 -106 33 -60 40 -111 27 -195 -20 -127 -94 -205 -223 -234 l-54 -12 18 -37
c15 -29 19 -59 19 -153 0 -144 5 -150 82 -118 175 74 301 211 364 394 23 68
27 97 28 195 1 127 -13 188 -66 295 -116 235 -390 381 -648 345z"/>
</g>
</svg>
