<svg width="120" height="120" viewBox="0 0 120 120" fill="none" xmlns="http://www.w3.org/2000/svg">
<rect width="120" height="120" fill="white"/>
<path d="M66.7048 55.5784H75.0248L69.7231 50.2734C68.0163 48.5666 65.8902 47.3391 63.5585 46.7144C61.2268 46.0898 58.7718 46.09 56.4403 46.715C54.1087 47.34 51.9827 48.5677 50.2761 50.2749C48.5695 51.982 47.3424 54.1083 46.7181 56.4401M44.9748 72.7384V64.4184M44.9748 64.4184H53.2948M44.9748 64.4184L50.2748 69.7234C51.9817 71.4303 54.1078 72.6578 56.4395 73.2824C58.7711 73.9071 61.2261 73.9069 63.5577 73.2819C65.8893 72.6569 68.0152 71.4291 69.7218 69.722C71.4284 68.0149 72.6555 65.8885 73.2798 63.5568M75.0248 47.2584V55.5751" stroke="#CCCCCC" stroke-width="2.5" stroke-linecap="round" stroke-linejoin="round"/>
</svg>
