<?xml version="1.0" standalone="no"?>
<!DOCTYPE svg PUBLIC "-//W3C//DTD SVG 20010904//EN"
 "http://www.w3.org/TR/2001/REC-SVG-20010904/DTD/svg10.dtd">
<svg version="1.0" xmlns="http://www.w3.org/2000/svg"
 width="128.000000pt" height="128.000000pt" viewBox="0 0 128.000000 128.000000"
 preserveAspectRatio="xMidYMid meet">

<g transform="translate(0.000000,128.000000) scale(0.100000,-0.100000)"
fill="#000000" stroke="none">
<path d="M220 1130 c-88 -46 -121 -68 -140 -97 l-25 -37 0 -375 0 -376 24 -38
c27 -45 63 -64 193 -106 88 -28 101 -29 135 -18 23 7 45 24 58 44 l20 32 148
1 c127 0 153 3 186 20 59 29 84 78 89 171 5 89 -11 129 -52 129 -41 0 -56 -29
-56 -108 0 -102 0 -102 -176 -102 l-144 0 0 370 0 370 144 0 c176 0 176 0 176
-104 0 -58 4 -76 18 -89 27 -24 59 -21 78 8 25 38 16 169 -15 219 -41 65 -78
76 -256 76 -101 0 -155 4 -155 10 0 6 -12 22 -26 35 -44 41 -91 34 -224 -35z
m150 -499 l0 -450 -90 31 c-50 16 -97 37 -105 45 -13 12 -15 69 -15 362 0 319
1 349 18 363 17 16 171 97 185 98 4 0 7 -202 7 -449z"/>
<path d="M1023 774 c-16 -25 -16 -28 0 -55 l16 -29 -212 0 c-228 0 -237 -2
-237 -50 0 -48 9 -50 237 -50 l212 0 -16 -29 c-16 -27 -16 -30 0 -55 29 -44
56 -34 135 48 40 41 72 79 72 86 0 7 -32 45 -72 86 -79 82 -106 92 -135 48z"/>
</g>
</svg>
