<svg width="250" height="250" viewBox="0 0 250 250" fill="none" xmlns="http://www.w3.org/2000/svg">
<circle cx="174" cy="41" r="13" fill="#3E5879"/>
<circle cx="76" cy="41" r="13" fill="#213555"/>
<path d="M126.5 94.5002C126.5 111.897 99.0914 71.5002 77 71.5002C54.9086 71.5002 26 45.3973 26 28.0004C26 10.6034 54.9086 56.5003 77 56.5003C99.0914 56.5003 123.5 78.0002 126.5 94.5002Z" fill="#213555"/>
<path d="M124 94.4367C124 111.834 151.409 71.4368 173.5 71.4368C195.591 71.4368 224.5 45.3339 224.5 27.9369C224.5 10.5399 195.591 56.4368 173.5 56.4368C151.409 56.4368 127 77.9367 124 94.4367Z" fill="#3E5879"/>
<path d="M155 64H194.615C207.175 85.265 208.087 98.7074 198.73 119.558C196.37 124.819 190.998 128 185.232 128C172.62 128 166.187 113.568 168.312 101.136C170.287 89.5779 165.981 78.684 155 64Z" fill="#3E5879"/>
<path d="M97 64H58.1772C45.8677 85.2661 44.9742 98.7088 54.1457 119.562C56.4543 124.811 61.7868 128 67.5209 128C79.8973 128 86.3283 113.923 84.064 101.755C81.87 89.9651 86.047 78.9457 97 64Z" fill="#213555"/>
<path d="M170.827 106.337C167.467 117.322 190.954 118.256 187.029 129.052C180.075 148.175 168.393 162.544 157.359 179.699C155.922 181.932 153.12 182.883 150.64 181.934C147.17 180.606 145.95 176.294 147.921 173.145C164.277 147.015 171.248 104.96 170.827 106.337Z" fill="#3E5879"/>
<path d="M81.6502 105.037C85.0093 116.004 61.5422 116.904 65.421 127.698C72.4782 147.336 84.3363 162.065 95.5491 179.662C96.9846 181.915 99.8039 182.877 102.298 181.92C105.761 180.592 106.986 176.294 105.026 173.147C88.4475 146.529 81.2203 103.633 81.6502 105.037Z" fill="#213555"/>
<path d="M183.221 109.75C180.615 103.879 183.537 96.9446 189.661 95.0041C195.664 93.1019 201.988 96.8922 203.077 103.095C207.904 130.602 209.921 149.592 210.987 178.165C211.127 181.912 208.338 185.119 204.611 185.528C200.236 186.008 196.472 182.467 196.552 178.066C197.042 151.15 193.649 133.249 183.221 109.75Z" fill="#3E5879"/>
<path d="M68.5945 109.75C71.2003 103.879 68.2781 96.9446 62.1544 95.0041C56.1512 93.1019 49.8274 96.8922 48.7389 103.095C43.9112 130.602 41.8943 149.592 40.8283 178.165C40.6885 181.912 43.4775 185.119 47.2045 185.528C51.5797 186.008 55.3431 182.467 55.2631 178.066C54.7738 151.15 58.166 133.249 68.5945 109.75Z" fill="#213555"/>
<path d="M48.2266 227H38.6172V198.719H48.3828C56.8203 198.719 61.918 204.012 61.9375 212.82C61.918 221.668 56.8203 227 48.2266 227ZM43.6953 222.586H47.9531C53.8711 222.605 56.8594 219.344 56.8594 212.82C56.8594 206.336 53.8711 203.113 48.1094 203.133H43.6953V222.586ZM80.4094 227.43C74.0227 227.43 70.0969 223.172 70.0969 216.531C70.0969 209.969 74.0812 205.516 80.1359 205.516C85.3312 205.516 89.8234 208.777 89.8234 216.219V217.781H75.0187C75.0969 221.395 77.2258 223.543 80.4484 223.523C82.6359 223.543 84.1008 222.605 84.7453 221.336H89.6281C88.7297 225.008 85.3312 227.43 80.4094 227.43ZM75.0383 214.383H85.0578C85.0383 211.492 83.0852 209.383 80.2141 209.383C77.2258 209.383 75.2141 211.688 75.0383 214.383ZM116.811 205.789L109.233 227H103.764L96.1859 205.789H101.498L106.381 221.57H106.616L111.537 205.789H116.811ZM124.97 227V198.719H135.595C142.08 198.719 145.537 202.664 145.556 208.094C145.537 213.504 142.041 217.43 135.517 217.43H130.048V227H124.97ZM130.048 213.25H134.814C138.642 213.23 140.361 211.082 140.361 208.094C140.361 205.066 138.642 202.977 134.814 202.977H130.048V213.25ZM152.856 221.023C152.856 216.258 156.821 214.871 160.747 214.617C162.231 214.5 165.259 214.363 166.196 214.324L166.177 212.625C166.177 210.516 164.829 209.305 162.348 209.305C160.122 209.305 158.755 210.32 158.364 211.844H153.559C153.911 208.23 157.153 205.516 162.466 205.516C166.489 205.516 171.137 207.176 171.137 212.82V227H166.372V224.07H166.216C165.278 225.867 163.305 227.43 159.966 227.43C155.923 227.43 152.856 225.223 152.856 221.023ZM157.661 220.984C157.661 222.82 159.165 223.758 161.255 223.758C164.282 223.758 166.216 221.766 166.216 219.383L166.196 217.645C165.298 217.684 162.524 217.859 161.528 217.938C159.165 218.133 157.661 219.129 157.661 220.984ZM185.625 198.719V227H180.625V198.719H185.625ZM207.222 211.844C206.909 210.242 205.581 209.207 203.472 209.227C201.343 209.207 199.78 210.281 199.8 211.727C199.78 212.82 200.659 213.641 202.808 214.148L206.402 214.891C210.405 215.77 212.359 217.625 212.378 220.672C212.359 224.656 208.863 227.43 203.316 227.43C197.925 227.43 194.741 225.008 194.214 220.945H199.292C199.585 222.762 200.991 223.66 203.316 223.641C205.718 223.66 207.28 222.684 207.3 221.102C207.28 219.871 206.323 219.09 204.214 218.641L200.816 217.898C196.87 217.098 194.82 215.027 194.839 212C194.82 208.074 198.218 205.516 203.394 205.516C208.452 205.516 211.577 207.996 211.948 211.844H207.222Z" fill="black"/>
</svg>
