<svg width="100" height="100" viewBox="0 0 100 100" fill="none" xmlns="http://www.w3.org/2000/svg">
<path d="M50 87.4994C47.0833 87.4994 44.6181 86.4924 42.6042 84.4785C40.5903 82.4646 39.5833 79.9994 39.5833 77.0827C39.5833 74.166 40.5903 71.7007 42.6042 69.6869C44.6181 67.673 47.0833 66.666 50 66.666C52.9167 66.666 55.3819 67.673 57.3958 69.6869C59.4097 71.7007 60.4167 74.166 60.4167 77.0827C60.4167 79.9994 59.4097 82.4646 57.3958 84.4785C55.3819 86.4924 52.9167 87.4994 50 87.4994ZM26.4583 63.9577L17.7083 54.9994C21.8056 50.9021 26.6153 47.6563 32.1375 45.2619C37.6597 42.8674 43.6139 41.6688 50 41.666C56.3861 41.6632 62.3417 42.8785 67.8667 45.3119C73.3917 47.7452 78.2 51.0438 82.2917 55.2077L73.5417 63.9577C70.4861 60.9021 66.9444 58.5063 62.9167 56.7702C58.8889 55.0341 54.5833 54.166 50 54.166C45.4167 54.166 41.1111 55.0341 37.0833 56.7702C33.0556 58.5063 29.5139 60.9021 26.4583 63.9577ZM8.75 46.2494L0 37.4994C6.38889 30.9716 13.8542 25.8674 22.3958 22.1868C30.9375 18.5063 40.1389 16.666 50 16.666C59.8611 16.666 69.0625 18.5063 77.6042 22.1868C86.1458 25.8674 93.6111 30.9716 100 37.4994L91.25 46.2494C85.9028 40.9021 79.7056 36.7188 72.6583 33.6994C65.6111 30.6799 58.0583 29.1688 50 29.166C41.9417 29.1632 34.3903 30.6744 27.3458 33.6994C20.3014 36.7244 14.1028 40.9077 8.75 46.2494Z" fill="#C2C2C2"/>
</svg>
